<?xml version="1.0" encoding="utf-8"?>
<!-- Generator: Adobe Illustrator 16.0.0, SVG Export Plug-In . SVG Version: 6.00 Build 0)  -->
<!DOCTYPE svg PUBLIC "-//W3C//DTD SVG 1.1//EN" "http://www.w3.org/Graphics/SVG/1.1/DTD/svg11.dtd">
<svg version="1.1" id="Layer_1" xmlns="http://www.w3.org/2000/svg" xmlns:xlink="http://www.w3.org/1999/xlink" x="0px" y="0px"
	 width="160px" height="26px" viewBox="0 0 160 26" enable-background="new 0 0 160 26" xml:space="preserve">
<g>
	<path fill="#FFFFFF" d="M77.216,2.789h-8.443l-4.786,17.706h2.756c1.636,0,2.843-0.195,3.265-1.773l0.782-2.995h2.669
		c9.334,0,10.027-5.399,10.317-6.458C83.969,8.558,84.669,2.789,77.216,2.789z M78.639,8.996c-0.186,0.654-1.179,2.641-4.11,2.641
		h-2.63l1.402-5.189h2.767C78.741,6.448,78.826,8.342,78.639,8.996z"/>
	<path fill="#FFFFFF" d="M131.266,2.953c-1.086,0-2.117,0.479-2.818,1.307l-6.325,7.464l-2.208-8.771h-5.54l5.152,19.214
		l16.907-19.214H131.266z"/>
	<path fill="#FFFFFF" d="M151.511,2.78c-0.596,0-1.161,0.455-1.323,1.038l-0.007,0.002l-3.97,14.512l-0.004,0.021l-0.588,2.139
		h5.365l4.85-17.712H151.511z"/>
	<path fill="#FFFFFF" d="M145.215,8.398c-1.146-1.096-3.019-1.517-4.875-1.517c-1.576,0-3.15,0.258-4.025,0.594
		c-7.356,2.83-6.661,9.095-4.464,11.197c1.118,1.07,2.279,1.918,4.714,2.104c3.262,0.249,5.15-0.239,6.33-0.7
		c0.068-0.178,0.528-1.969,0.818-2.91c-0.763,0.398-5.519,1.641-7.542,0.222c-0.715-0.503-0.891-1.321-0.683-1.956
		c0.388,0.104,0.977,0.292,1.404,0.361c0.569,0.094,1.25,0.141,2.02,0.141c0.893,0,1.766-0.086,2.596-0.256
		c0.728-0.149,1.447-0.412,2.199-0.799c0.656-0.338,1.293-0.852,1.707-1.374c0.523-0.661,0.83-1.331,0.936-2.043
		C146.515,10.38,146.09,9.234,145.215,8.398z M141.689,11.609c-0.106,0.457-0.503,0.875-1.006,1.112
		c-1.486,0.697-3.178,0.303-3.579,0.225c-0.24-0.048-0.858-0.197-1.163-0.286c0,0,0.82-2.632,3.856-2.632
		C140.359,10.027,141.973,10.387,141.689,11.609z"/>
	<path fill="#FFFFFF" d="M96.982,8.489c-0.885-1.022-2.567-1.558-4.992-1.603c-1.614-0.03-4.091,0.347-5.078,0.62
		c-0.026,0.076-0.828,2.879-0.828,2.879s4.994-1.235,6.552,0.004c0.683,0.542,0.455,1.179,0.247,1.812
		c-0.388-0.104-0.799-0.195-1.227-0.265c-0.569-0.093-1.25-0.141-2.02-0.141c-0.893,0-1.766,0.086-2.596,0.255
		c-0.728,0.15-1.447,0.412-2.199,0.8c-0.654,0.338-1.293,0.852-1.709,1.374c-0.521,0.66-0.83,1.33-0.934,2.045
		c-0.16,1.084,0.264,2.231,1.14,3.066c1.146,1.096,3.019,1.516,4.875,1.516c1.575,0,2.951-0.301,3.844-0.608
		c2.267-0.782,3.521,0.251,3.521,0.251l2.02-7.795C98.072,10.931,97.866,9.516,96.982,8.489z M88.751,17.706
		c-0.562,0-2.175-0.362-1.892-1.581c0.106-0.458,0.503-0.876,1.006-1.112c1.486-0.698,3.178-0.302,3.579-0.226
		c0.24,0.048,0.53,0.148,0.837,0.236C92.281,15.023,91.789,17.706,88.751,17.706z"/>
	<path fill="#FFFFFF" d="M113.681,9.163c-0.452-0.587-1.844-2.279-5.103-2.279c-1.85,0-2.9,0.332-4.104,0.672
		c-1.807,0.514-3.042-0.314-3.042-0.314l-3.444,13.251h5.078c0,0,1.568-6.205,1.794-7.057c0.206-0.778,0.624-2.436,2.814-2.436
		c1.111,0,2.134,0.47,1.666,2.258c-0.112,0.432-1.915,7.236-1.915,7.236h5.037l1.799-6.807c0.236-0.874,0.314-1.706,0.227-2.466
		C114.402,10.437,114.129,9.744,113.681,9.163"/>
	<g>
		<path fill="#00BEDF" d="M35.035,19.164c-0.499,0.578-1.068,1.045-1.705,1.402c-0.637,0.355-1.376,0.535-2.214,0.535
			c-0.782,0-1.413-0.129-1.889-0.387c-0.479-0.258-0.843-0.61-1.09-1.059c-0.25-0.449-0.403-0.986-0.459-1.617
			c-0.059-0.628-0.048-1.314,0.03-2.058c0.124-1.183,0.429-2.327,0.917-3.432s1.125-2.089,1.911-2.947
			c0.786-0.858,1.692-1.549,2.719-2.073c1.027-0.524,2.141-0.787,3.343-0.787c0.763,0,1.59,0.119,2.481,0.357
			s1.72,0.607,2.487,1.101l-2.431,9.009c-0.086,0.286-0.149,0.601-0.184,0.944c-0.043,0.42-0.054,0.844-0.032,1.271
			c0.021,0.43,0.082,0.807,0.182,1.129c-0.344,0.191-0.702,0.326-1.07,0.401c-0.37,0.075-0.736,0.114-1.098,0.114
			c-0.611,0-1.082-0.148-1.413-0.447C35.18,20.326,35.022,19.838,35.035,19.164z M36.123,9.603c-0.497,0-0.988,0.147-1.476,0.442
			c-0.488,0.295-0.942,0.713-1.361,1.255c-0.418,0.542-0.78,1.202-1.079,1.982c-0.301,0.78-0.502,1.654-0.604,2.622
			c-0.158,1.501,0.28,2.251,1.309,2.251c0.342,0,0.666-0.08,0.969-0.242c0.303-0.16,0.583-0.375,0.838-0.642
			c0.256-0.267,0.479-0.574,0.669-0.927c0.188-0.352,0.334-0.729,0.434-1.127l1.438-5.274C36.901,9.715,36.523,9.603,36.123,9.603z"
			/>
		<path fill="#00BEDF" d="M46.885,0.507c0.232-0.039,0.468-0.067,0.71-0.086c0.241-0.02,0.455-0.028,0.646-0.028
			c0.782,0,1.315,0.187,1.601,0.557c0.286,0.373,0.398,0.834,0.34,1.386c-0.013,0.115-0.028,0.23-0.05,0.343
			c-0.021,0.115-0.047,0.229-0.08,0.342L46.222,17.21c-0.061,0.21-0.11,0.425-0.154,0.644c-0.041,0.219-0.076,0.443-0.1,0.672
			c-0.039,0.361-0.052,0.726-0.043,1.088c0.009,0.361,0.048,0.676,0.115,0.943c-0.344,0.191-0.678,0.326-1.001,0.401
			c-0.323,0.076-0.665,0.114-1.027,0.114c-0.782,0-1.343-0.15-1.684-0.457c-0.34-0.305-0.466-0.866-0.381-1.688
			c0.009-0.076,0.024-0.176,0.045-0.301c0.022-0.123,0.048-0.234,0.078-0.33L46.885,0.507z"/>
		<path fill="#00BEDF" d="M54.338,21.1c-1.012,0-1.837-0.158-2.481-0.473c-0.643-0.314-1.144-0.734-1.499-1.26
			c-0.355-0.523-0.587-1.129-0.696-1.814c-0.11-0.688-0.125-1.402-0.047-2.146c0.121-1.163,0.401-2.273,0.836-3.333
			c0.436-1.057,1.007-1.978,1.718-2.76c0.711-0.782,1.554-1.406,2.526-1.874c0.973-0.468,2.061-0.7,3.263-0.7
			c0.973,0,1.781,0.158,2.424,0.472c0.644,0.314,1.148,0.734,1.513,1.259c0.364,0.524,0.606,1.129,0.726,1.815
			c0.119,0.687,0.139,1.402,0.061,2.145c-0.117,1.125-0.379,2.212-0.784,3.261s-0.956,1.974-1.649,2.773
			c-0.695,0.801-1.534,1.44-2.518,1.915C56.745,20.861,55.614,21.1,54.338,21.1z M53.402,15.561
			c-0.091,0.873,0.015,1.525,0.325,1.953c0.308,0.429,0.728,0.641,1.263,0.641c0.438,0,0.871-0.127,1.298-0.385
			c0.427-0.256,0.814-0.631,1.161-1.127c0.347-0.494,0.646-1.107,0.893-1.838c0.25-0.732,0.423-1.573,0.522-2.524
			c0.091-0.873-0.018-1.525-0.325-1.952s-0.73-0.642-1.263-0.642c-0.44,0-0.871,0.128-1.298,0.386
			c-0.427,0.256-0.814,0.633-1.161,1.127c-0.347,0.494-0.646,1.107-0.893,1.839C53.675,13.77,53.501,14.609,53.402,15.561z
			 M58.881,2.851l-2.11,1.859c-0.251,0.21-0.5,0.353-0.745,0.429c-0.247,0.076-0.475,0.115-0.685,0.115
			c-0.267,0-0.52-0.043-0.758-0.128c-0.238-0.087-0.427-0.195-0.565-0.33l3.464-3.575c0.535-0.553,1.222-0.83,2.061-0.83
			c0.381,0,0.708,0.057,0.983,0.171c0.273,0.115,0.47,0.333,0.589,0.659l1.389,3.662c-0.221,0.115-0.466,0.21-0.73,0.286
			c-0.267,0.076-0.513,0.115-0.741,0.115c-0.267,0-0.52-0.048-0.759-0.143c-0.238-0.095-0.427-0.295-0.565-0.6L58.881,2.851z"/>
	</g>
	<g>
		<path fill="#00BEDF" d="M16.404,25.939c-0.301,0-0.617-0.016-0.949-0.045c-5.096-0.475-8.309-7.06-9.453-9.869
			c-2.02-4.956-2.301-8.425-0.917-11.244c1.545-3.142,4.983-3.956,5.213-4.008c0.646-0.184,1.229-0.083,1.729,0.303
			c1.339,1.031,1.645,3.681,1.612,5.085c-0.037,1.699-0.877,2.045-1.939,2.485c-0.505,0.208-1.077,0.444-1.69,0.865
			c-0.386,0.262-0.598,0.76-0.633,1.48c-0.11,2.214,1.536,5.95,3.263,7.401c1.313,1.105,1.965,0.622,2.789,0.012
			c0.474-0.352,1.009-0.75,1.711-0.83c1.974-0.229,4.271,3.709,4.587,4.816c0.134,0.47-0.076,1.101-0.561,1.688
			C20.781,24.544,19.375,25.939,16.404,25.939z M10.903,1.116c-0.156,0-0.321,0.024-0.492,0.074l-0.013,0.004
			C10.363,1.2,6.942,1.98,5.471,4.973c-1.326,2.7-1.04,6.058,0.927,10.892c1.116,2.737,4.233,9.149,9.096,9.603
			c3.415,0.32,4.951-1.189,5.341-1.66c0.383-0.461,0.572-0.971,0.479-1.295c-0.323-1.131-2.554-4.685-4.123-4.509
			c-0.587,0.067-1.053,0.413-1.506,0.747c-0.858,0.637-1.746,1.296-3.319-0.027c-1.807-1.52-3.532-5.432-3.417-7.753
			c0.043-0.86,0.319-1.469,0.819-1.813c0.65-0.444,1.244-0.691,1.768-0.908c1.06-0.438,1.642-0.68,1.675-2.097
			c0.039-1.716-0.399-3.928-1.445-4.734C11.503,1.215,11.217,1.116,10.903,1.116z"/>
		<path fill="#00BEDF" d="M16.404,26c-0.31,0-0.63-0.016-0.956-0.045c-5.128-0.477-8.354-7.086-9.503-9.906
			C3.919,11.074,3.638,7.592,5.031,4.756c1.566-3.185,5.104-4.006,5.254-4.041c0.663-0.188,1.263-0.084,1.779,0.314
			c1.359,1.046,1.668,3.718,1.636,5.133c-0.039,1.738-0.893,2.091-1.976,2.539c-0.503,0.208-1.07,0.442-1.679,0.86
			c-0.369,0.251-0.572,0.732-0.607,1.432c-0.108,2.199,1.528,5.911,3.242,7.354c1.276,1.074,1.878,0.628,2.712,0.008
			c0.481-0.355,1.025-0.758,1.742-0.84c2.011-0.236,4.331,3.742,4.652,4.859c0.141,0.49-0.074,1.143-0.572,1.744
			C20.848,24.562,19.418,26,16.404,26z M10.903,0.748c-0.188,0-0.383,0.028-0.587,0.086C10.164,0.867,6.682,1.677,5.142,4.81
			c-1.378,2.801-1.094,6.253,0.919,11.193c1.14,2.8,4.34,9.36,9.401,9.83c0.321,0.03,0.639,0.046,0.945,0.046
			c2.959,0,4.357-1.406,4.714-1.838c0.473-0.569,0.678-1.181,0.55-1.631c-0.305-1.066-2.452-4.782-4.357-4.782
			c-0.054,0-0.108,0.005-0.165,0.009c-0.685,0.078-1.216,0.471-1.682,0.816c-0.813,0.603-1.514,1.123-2.864-0.013
			c-1.737-1.46-3.395-5.222-3.285-7.451C9.356,10.25,9.577,9.737,9.98,9.462c0.62-0.422,1.194-0.661,1.701-0.871
			c1.042-0.431,1.865-0.771,1.902-2.431c0.03-1.391-0.269-4.019-1.588-5.035C11.663,0.873,11.297,0.748,10.903,0.748z M16.411,25.57
			c-0.291,0-0.598-0.015-0.921-0.045c-4.895-0.455-8.028-6.893-9.146-9.637C4.368,11.037,4.082,7.661,5.417,4.946
			c1.482-3.011,4.933-3.804,4.968-3.813c0.566-0.163,1.008-0.08,1.419,0.236c1.064,0.819,1.508,3.055,1.469,4.784
			c-0.032,1.458-0.665,1.718-1.711,2.151c-0.52,0.215-1.111,0.459-1.757,0.901c-0.485,0.332-0.751,0.925-0.793,1.766
			c-0.115,2.305,1.599,6.192,3.395,7.702c1.537,1.292,2.405,0.65,3.244,0.027c0.459-0.341,0.932-0.691,1.536-0.762
			c0.94-0.104,2.024,1.075,2.585,1.788c0.799,1.017,1.445,2.204,1.605,2.765c0.098,0.344-0.095,0.873-0.49,1.35
			C20.525,24.277,19.214,25.57,16.411,25.57z M10.903,1.176c-0.149,0-0.31,0.024-0.475,0.072l-0.017,0.004
			c-0.035,0.009-3.43,0.786-4.886,3.746c-1.32,2.682-1.032,6.025,0.929,10.841c1.112,2.727,4.216,9.115,9.044,9.564
			c3.382,0.316,4.903-1.174,5.289-1.639c0.371-0.445,0.555-0.934,0.468-1.238c-0.325-1.141-2.472-4.471-3.955-4.471
			c-0.035,0-0.069,0.002-0.104,0.007c-0.57,0.065-1.029,0.405-1.473,0.734c-0.88,0.652-1.788,1.323-3.397-0.03
			c-1.818-1.529-3.553-5.466-3.438-7.8c0.043-0.88,0.327-1.506,0.845-1.861c0.656-0.448,1.252-0.695,1.779-0.912
			c1.068-0.442,1.605-0.663,1.636-2.043c0.039-1.701-0.39-3.892-1.421-4.687C11.475,1.272,11.204,1.176,10.903,1.176z"/>
	</g>
</g>
</svg>
