<?xml version="1.0" encoding="utf-8"?>
<!-- Generator: Adobe Illustrator 23.0.3, SVG Export Plug-In . SVG Version: 6.00 Build 0)  -->
<svg version="1.1" id="Layer_1" xmlns="http://www.w3.org/2000/svg" xmlns:xlink="http://www.w3.org/1999/xlink" x="0px" y="0px"
	 viewBox="0 0 700 120" style="enable-background:new 0 0 700 120;" xml:space="preserve">
<style type="text/css">
	.st0{fill:#003986;}
	.st1{fill:#00BEDF;}
</style>
<g>
	<path class="st0" d="M337.15,12.87h-38.97l-22.09,81.72h12.72c7.55,0,13.12-0.9,15.07-8.19l3.61-13.82h12.32
		c43.08,0,46.28-24.92,47.62-29.81C368.32,39.5,371.55,12.87,337.15,12.87z M343.72,41.52c-0.86,3.02-5.44,12.19-18.97,12.19h-12.14
		l6.47-23.95h12.77C344.19,29.76,344.58,38.5,343.72,41.52z"/>
	<path class="st0" d="M586.61,13.63c-5.01,0-9.77,2.21-13.01,6.03l-29.19,34.45l-10.19-40.48h-25.57l23.78,88.68l78.03-88.68H586.61
		z"/>
	<path class="st0" d="M680.05,12.83c-2.75,0-5.36,2.1-6.11,4.79l-0.03,0.01l-18.32,66.98l-0.02,0.1l-2.71,9.87h24.76L700,12.83
		H680.05z"/>
	<path class="st0" d="M650.99,38.76c-5.29-5.06-13.93-7-22.5-7c-7.27,0-14.54,1.19-18.58,2.74c-33.95,13.06-30.74,41.98-20.6,51.68
		c5.16,4.94,10.52,8.85,21.76,9.71c15.05,1.15,23.77-1.1,29.21-3.23c0.32-0.82,2.44-9.09,3.78-13.43
		c-3.52,1.84-25.47,7.57-34.81,1.02c-3.3-2.32-4.11-6.1-3.15-9.03c1.79,0.48,4.51,1.35,6.48,1.67c2.63,0.43,5.77,0.65,9.32,0.65
		c4.12,0,8.15-0.4,11.98-1.18c3.36-0.69,6.68-1.9,10.15-3.69c3.03-1.56,5.97-3.93,7.88-6.34c2.42-3.05,3.83-6.14,4.32-9.43
		C656.99,47.91,655.03,42.62,650.99,38.76z M634.72,53.58c-0.49,2.11-2.32,4.04-4.64,5.13c-6.86,3.22-14.67,1.4-16.52,1.04
		c-1.11-0.22-3.96-0.91-5.37-1.32c0,0,3.79-12.15,17.8-12.15C628.58,46.28,636.03,47.94,634.72,53.58z"/>
	<path class="st0" d="M428.38,39.18c-4.08-4.72-11.85-7.19-23.04-7.4c-7.45-0.14-18.88,1.6-23.44,2.86
		c-0.12,0.35-3.82,13.29-3.82,13.29s23.05-5.7,30.24,0.02c3.15,2.5,2.1,5.44,1.14,8.36c-1.79-0.48-3.69-0.9-5.66-1.22
		c-2.63-0.43-5.77-0.65-9.32-0.65c-4.12,0-8.15,0.4-11.98,1.18c-3.36,0.69-6.68,1.9-10.15,3.69c-3.02,1.56-5.97,3.93-7.89,6.34
		c-2.41,3.05-3.83,6.14-4.31,9.44c-0.74,5,1.22,10.3,5.26,14.15c5.29,5.06,13.93,7,22.5,7c7.27,0,13.62-1.39,17.74-2.81
		c10.46-3.61,16.25,1.16,16.25,1.16l9.32-35.98C433.41,50.45,432.46,43.92,428.38,39.18z M390.39,81.72c-2.59,0-10.04-1.67-8.73-7.3
		c0.49-2.11,2.32-4.04,4.64-5.13c6.86-3.22,14.67-1.39,16.52-1.04c1.11,0.22,2.45,0.68,3.86,1.09
		C406.68,69.34,404.41,81.72,390.39,81.72z"/>
	<path class="st0" d="M505.45,42.29c-2.09-2.71-8.51-10.52-23.55-10.52c-8.54,0-13.39,1.53-18.94,3.1
		c-8.34,2.37-14.04-1.45-14.04-1.45l-15.9,61.16h23.44c0,0,7.24-28.64,8.28-32.57c0.95-3.59,2.88-11.24,12.99-11.24
		c5.13,0,9.85,2.17,7.69,10.42c-0.52,1.99-8.84,33.4-8.84,33.4h23.25l8.3-31.42c1.09-4.03,1.45-7.87,1.05-11.38
		C508.78,48.17,507.52,44.97,505.45,42.29"/>
	<g>
		<path class="st1" d="M142.47,88.45c-2.3,2.67-4.93,4.82-7.87,6.47c-2.94,1.64-6.35,2.47-10.22,2.47c-3.61,0-6.52-0.59-8.72-1.78
			c-2.21-1.19-3.89-2.82-5.03-4.89c-1.15-2.07-1.86-4.55-2.12-7.46c-0.27-2.9-0.22-6.07,0.14-9.5c0.57-5.46,1.98-10.74,4.23-15.84
			c2.25-5.1,5.19-9.64,8.82-13.6c3.63-3.96,7.81-7.15,12.55-9.57c4.74-2.42,9.88-3.63,15.43-3.63c3.52,0,7.34,0.55,11.45,1.65
			c4.11,1.1,7.94,2.8,11.48,5.08l-11.22,41.58c-0.4,1.32-0.69,2.77-0.85,4.36c-0.2,1.94-0.25,3.89-0.15,5.87
			c0.1,1.98,0.38,3.72,0.84,5.21c-1.59,0.88-3.24,1.5-4.94,1.85c-1.71,0.35-3.4,0.53-5.07,0.53c-2.82,0-4.99-0.69-6.52-2.07
			C143.14,93.81,142.41,91.56,142.47,88.45z M147.49,44.32c-2.29,0-4.56,0.68-6.81,2.04c-2.25,1.36-4.35,3.29-6.28,5.79
			c-1.93,2.5-3.6,5.55-4.98,9.15c-1.39,3.6-2.32,7.63-2.79,12.1c-0.73,6.93,1.29,10.39,6.04,10.39c1.58,0,3.07-0.37,4.47-1.12
			c1.4-0.74,2.69-1.73,3.87-2.96c1.18-1.23,2.21-2.65,3.09-4.28c0.87-1.62,1.54-3.36,2-5.2l6.64-24.34
			C151.08,44.84,149.34,44.32,147.49,44.32z"/>
		<path class="st1" d="M197.16,2.34c1.07-0.18,2.16-0.31,3.28-0.4c1.11-0.09,2.1-0.13,2.98-0.13c3.61,0,6.07,0.86,7.39,2.57
			c1.32,1.72,1.84,3.85,1.57,6.4c-0.06,0.53-0.13,1.06-0.23,1.58c-0.1,0.53-0.22,1.06-0.37,1.58L194.1,79.43
			c-0.28,0.97-0.51,1.96-0.71,2.97c-0.19,1.01-0.35,2.05-0.46,3.1c-0.18,1.67-0.24,3.35-0.2,5.02c0.04,1.67,0.22,3.12,0.53,4.36
			c-1.59,0.88-3.13,1.5-4.62,1.85c-1.49,0.35-3.07,0.53-4.74,0.53c-3.61,0-6.2-0.7-7.77-2.11c-1.57-1.41-2.15-4-1.76-7.79
			c0.04-0.35,0.11-0.81,0.21-1.39c0.1-0.57,0.22-1.08,0.36-1.52L197.16,2.34z"/>
		<path class="st1" d="M231.56,97.38c-4.67,0-8.48-0.73-11.45-2.18c-2.97-1.45-5.28-3.39-6.92-5.81c-1.64-2.42-2.71-5.21-3.21-8.38
			c-0.51-3.17-0.58-6.47-0.22-9.9c0.56-5.37,1.85-10.49,3.86-15.38c2.01-4.88,4.65-9.13,7.93-12.74c3.28-3.61,7.17-6.49,11.66-8.65
			c4.49-2.16,9.51-3.23,15.06-3.23c4.49,0,8.22,0.73,11.19,2.18c2.97,1.45,5.3,3.39,6.98,5.81c1.68,2.42,2.8,5.21,3.35,8.38
			c0.55,3.17,0.64,6.47,0.28,9.9c-0.54,5.19-1.75,10.21-3.62,15.05c-1.87,4.84-4.41,9.11-7.61,12.8c-3.21,3.7-7.08,6.65-11.62,8.84
			C242.67,96.28,237.45,97.38,231.56,97.38z M227.24,71.82c-0.42,4.03,0.07,7.04,1.5,9.01c1.42,1.98,3.36,2.96,5.83,2.96
			c2.02,0,4.02-0.59,5.99-1.78c1.97-1.18,3.76-2.91,5.36-5.2c1.6-2.28,2.98-5.11,4.12-8.48c1.15-3.38,1.95-7.26,2.41-11.65
			c0.42-4.03-0.08-7.04-1.5-9.01c-1.42-1.97-3.37-2.96-5.83-2.96c-2.03,0-4.02,0.59-5.99,1.78c-1.97,1.18-3.76,2.92-5.36,5.2
			c-1.6,2.28-2.98,5.11-4.12,8.49C228.5,63.55,227.7,67.43,227.24,71.82z M252.53,13.16l-9.74,8.58c-1.16,0.97-2.31,1.63-3.44,1.98
			c-1.14,0.35-2.19,0.53-3.16,0.53c-1.23,0-2.4-0.2-3.5-0.59c-1.1-0.4-1.97-0.9-2.61-1.52l15.99-16.5c2.47-2.55,5.64-3.83,9.51-3.83
			c1.76,0,3.27,0.26,4.54,0.79c1.26,0.53,2.17,1.54,2.72,3.04l6.41,16.9c-1.02,0.53-2.15,0.97-3.37,1.32
			c-1.23,0.35-2.37,0.53-3.42,0.53c-1.23,0-2.4-0.22-3.5-0.66c-1.1-0.44-1.97-1.36-2.61-2.77L252.53,13.16z"/>
	</g>
	<g>
		<path class="st1" d="M56.48,119.72c-1.39,0-2.85-0.07-4.38-0.21c-23.52-2.19-38.35-32.58-43.63-45.55
			C-0.85,51.09-2.15,35.08,4.24,22.07c7.13-14.5,23-18.26,24.06-18.5c2.98-0.85,5.67-0.38,7.98,1.4c6.18,4.76,7.59,16.99,7.44,23.47
			c-0.17,7.84-4.05,9.44-8.95,11.47c-2.33,0.96-4.97,2.05-7.8,3.99c-1.78,1.21-2.76,3.51-2.92,6.83
			c-0.51,10.22,7.09,27.46,15.06,34.16c6.06,5.1,9.07,2.87,12.87,0.05c2.19-1.62,4.66-3.46,7.9-3.83
			c9.11-1.05,19.71,17.12,21.17,22.23c0.62,2.17-0.35,5.08-2.59,7.79C76.68,113.28,70.19,119.72,56.48,119.72z M31.09,5.15
			c-0.72,0-1.48,0.11-2.27,0.34l-0.06,0.02C28.6,5.54,12.81,9.14,6.02,22.95c-6.12,12.46-4.8,27.96,4.28,50.27
			c5.15,12.63,19.54,42.23,41.98,44.32c15.76,1.48,22.85-5.49,24.65-7.66c1.77-2.13,2.64-4.48,2.21-5.98
			c-1.49-5.22-11.79-21.62-19.03-20.81c-2.71,0.31-4.86,1.91-6.95,3.45c-3.96,2.94-8.06,5.98-15.32-0.13
			c-8.34-7.01-16.3-25.07-15.77-35.78c0.2-3.97,1.47-6.78,3.78-8.37c3-2.05,5.74-3.19,8.16-4.19c4.89-2.02,7.58-3.14,7.73-9.68
			c0.18-7.92-1.84-18.13-6.67-21.85C33.86,5.61,32.54,5.15,31.09,5.15z"/>
		<path class="st1" d="M56.48,120c-1.43,0-2.91-0.07-4.41-0.21c-23.67-2.2-38.56-32.7-43.86-45.72
			C-1.14,51.11-2.44,35.04,3.99,21.95C11.22,7.25,27.55,3.46,28.24,3.3c3.06-0.87,5.83-0.39,8.21,1.45
			c6.27,4.83,7.7,17.16,7.55,23.69c-0.18,8.02-4.12,9.65-9.12,11.72c-2.32,0.96-4.94,2.04-7.75,3.97c-1.7,1.16-2.64,3.38-2.8,6.61
			c-0.5,10.15,7.05,27.28,14.96,33.94c5.89,4.96,8.67,2.9,12.52,0.04c2.22-1.64,4.73-3.5,8.04-3.88
			c9.28-1.09,19.99,17.27,21.47,22.43c0.65,2.26-0.34,5.27-2.64,8.05C76.99,113.36,70.39,120,56.48,120z M31.09,3.45
			c-0.87,0-1.77,0.13-2.71,0.4C27.68,4,11.61,7.74,4.5,22.2c-6.36,12.93-5.05,28.86,4.24,51.66c5.26,12.92,20.03,43.2,43.39,45.37
			c1.48,0.14,2.95,0.21,4.36,0.21c13.66,0,20.11-6.49,21.76-8.48c2.18-2.63,3.13-5.45,2.54-7.53c-1.41-4.92-11.32-22.07-20.11-22.07
			c-0.25,0-0.5,0.02-0.76,0.04c-3.16,0.36-5.61,2.17-7.76,3.77c-3.75,2.78-6.99,5.18-13.22-0.06c-8.02-6.74-15.67-24.1-15.16-34.39
			c0.17-3.41,1.19-5.78,3.05-7.05c2.86-1.95,5.51-3.05,7.85-4.02c4.81-1.99,8.61-3.56,8.78-11.22c0.14-6.42-1.24-18.55-7.33-23.24
			C34.6,4.03,32.91,3.45,31.09,3.45z M56.51,118.02c-1.34,0-2.76-0.07-4.25-0.21C29.67,115.71,15.21,86,10.05,73.33
			C0.93,50.94-0.39,35.36,5.77,22.83C12.61,8.93,28.54,5.27,28.7,5.23c2.61-0.75,4.65-0.37,6.55,1.09
			c4.91,3.78,6.96,14.1,6.78,22.08c-0.15,6.73-3.07,7.93-7.9,9.93c-2.4,0.99-5.13,2.12-8.11,4.16c-2.24,1.53-3.47,4.27-3.66,8.15
			c-0.53,10.64,7.38,28.58,15.67,35.55c7.09,5.96,11.1,3,14.97,0.12c2.12-1.57,4.3-3.19,7.09-3.51c4.34-0.48,9.34,4.96,11.93,8.25
			c3.69,4.69,6.67,10.17,7.41,12.76c0.45,1.59-0.44,4.03-2.26,6.23C75.5,112.05,69.45,118.02,56.51,118.02z M31.09,5.43
			c-0.69,0-1.43,0.11-2.19,0.33l-0.08,0.02C28.66,5.82,12.99,9.41,6.27,23.07c-6.09,12.38-4.76,27.81,4.29,50.04
			c5.13,12.58,19.46,42.07,41.74,44.14c15.61,1.46,22.63-5.42,24.41-7.56c1.71-2.06,2.56-4.31,2.16-5.72
			c-1.5-5.26-11.41-20.63-18.25-20.63c-0.16,0-0.32,0.01-0.48,0.03c-2.63,0.3-4.75,1.87-6.8,3.39c-4.06,3.01-8.25,6.11-15.68-0.14
			c-8.39-7.06-16.4-25.23-15.87-36c0.2-4.06,1.51-6.95,3.9-8.59c3.03-2.07,5.78-3.21,8.21-4.21c4.93-2.04,7.41-3.06,7.55-9.43
			c0.18-7.85-1.8-17.96-6.56-21.63C33.73,5.87,32.48,5.43,31.09,5.43z"/>
	</g>
</g>
</svg>
