<?xml version="1.0" encoding="utf-8"?>
<!-- Generator: Adobe Illustrator 16.0.0, SVG Export Plug-In . SVG Version: 6.00 Build 0)  -->
<!DOCTYPE svg PUBLIC "-//W3C//DTD SVG 1.1//EN" "http://www.w3.org/Graphics/SVG/1.1/DTD/svg11.dtd">
<svg version="1.1" id="Camada_1" xmlns="http://www.w3.org/2000/svg" xmlns:xlink="http://www.w3.org/1999/xlink" x="0px" y="0px"
	 width="60px" height="60px" viewBox="0 0 60 60" enable-background="new 0 0 60 60" xml:space="preserve">
<g>
	<rect x="-2.74" y="31.021" transform="matrix(0.7071 0.7071 -0.7071 0.7071 31.9161 -10.286)" width="62.228" height="4.723"/>
	<g>
		<path d="M23.625,18.668L30,9.317l7.409,10.867H25.142l25.754,25.754l6.199-22.617l0.071-0.667c0-1.358-1.112-2.47-2.47-2.47
			h-11.83L32.05,3.983C31.582,3.292,30.79,2.946,30,2.946s-1.581,0.346-2.05,1.063l-7.608,11.377L23.625,18.668z"/>
		<path d="M34.704,36.427c-0.619,2.023-2.486,3.516-4.704,3.516c-2.717,0-4.939-2.224-4.939-4.938c0-2.217,1.492-4.085,3.516-4.704
			L17.666,19.388l-0.533,0.797H5.303c-1.358,0-2.47,1.112-2.47,2.471c0,0.222,0.024,0.445,0.099,0.667l6.273,22.894
			c0.568,2.074,2.47,3.605,4.742,3.605h32.106c0.609,0,1.188-0.117,1.727-0.318L34.704,36.427z"/>
	</g>
</g>
</svg>
