<svg xmlns="http://www.w3.org/2000/svg" width="125.148" height="25.68" viewBox="0 0 125.148 25.68">
    <defs>
        <style>
            .a-logo-azul {
                fill:#003986;
            }
        </style>
    </defs>
    <g transform="translate(-360 -6)">
        <path class="a-logo-azul" 
            d="M-395.654-266.716a20.182,20.182,0,0,0-2.716.247l1.975-7.531h-5.062a3.6,3.6,0,0,0-3.58,2.716l-1.6,5.679a9.554,9.554,0,0,0,2.222-.247,11.494,11.494,0,0,1-6.42,1.852,6.012,6.012,0,0,1-1.482-.123,10.945,10.945,0,0,1-3.457-.864l-2.222,7.9a11.6,11.6,0,0,0,5.8,1.482,12.183,12.183,0,0,0,2.963-.37l-2.1,7.655h5.185a3.817,3.817,0,0,0,3.58-2.716l1.482-5.432a10.946,10.946,0,0,0-3.457.864,13.689,13.689,0,0,1,3.7-2.1h.124c.123,0,.123,0,.247-.124.124,0,.124,0,.247-.123.123,0,.247,0,.247-.123h.247c.123,0,.247,0,.247-.123h4.815a.454.454,0,0,1,.37.123h.247c.123,0,.247.123.37.123h.247c.124,0,.247.123.37.123s.123,0,.247.124c.124,0,.247.123.37.123a.121.121,0,0,1,.124.123c.123,0,.247.124.37.124h0l2.222-7.9a13.148,13.148,0,0,0-5.926-1.482" 
            transform="translate(874.875 280)"/>
        <path class="a-logo-azul" 
            d="M48.858,6.26a5.851,5.851,0,0,0-5.016-2.236,12.725,12.725,0,0,0-4.024.661,3.791,3.791,0,0,1-2.994-.311L33.44,17.4h5s1.536-6.1,1.769-6.941a2.684,2.684,0,0,1,2.761-2.391c1.089,0,2.1.467,1.633,2.216-.117.428-1.886,7.116-1.886,7.116h4.958l1.769-6.688a6.661,6.661,0,0,0,.233-2.43A4.137,4.137,0,0,0,48.858,6.26ZM27.53,4.024a23.087,23.087,0,0,0-5,.6c-.019.078-.817,2.839-.817,2.839s4.919-1.205,6.435,0c.68.525.447,1.167.253,1.789A10.988,10.988,0,0,0,27.2,9a11.9,11.9,0,0,0-1.983-.136,12.171,12.171,0,0,0-2.547.253,9.042,9.042,0,0,0-2.158.778,5.472,5.472,0,0,0-1.672,1.341,4.15,4.15,0,0,0-.914,2,3.47,3.47,0,0,0,1.128,3.014,7.055,7.055,0,0,0,4.783,1.5,11.636,11.636,0,0,0,3.772-.6,3.6,3.6,0,0,1,3.461.253l1.983-7.66a4.316,4.316,0,0,0-.6-4.141C31.574,4.608,29.921,4.083,27.53,4.024ZM24.341,14.659c-.544,0-2.139-.35-1.866-1.555a1.7,1.7,0,0,1,.992-1.089,5.8,5.8,0,0,1,3.519-.214,5.985,5.985,0,0,1,.817.233A3.325,3.325,0,0,1,24.341,14.659ZM79.868,5.522a7.055,7.055,0,0,0-4.783-1.5,12.485,12.485,0,0,0-3.966.583c-7.232,2.78-6.552,8.943-4.394,11a6.633,6.633,0,0,0,4.627,2.061,13.639,13.639,0,0,0,6.221-.68c.078-.175.525-1.944.8-2.858-.758.389-5.424,1.614-7.407.214a1.725,1.725,0,0,1-.68-1.925c.389.1.953.292,1.38.35a11.9,11.9,0,0,0,1.983.136,12.171,12.171,0,0,0,2.547-.253,9.042,9.042,0,0,0,2.158-.778,5.472,5.472,0,0,0,1.672-1.341,4.15,4.15,0,0,0,.914-2A3.373,3.373,0,0,0,79.868,5.522Zm-3.48,3.15A1.7,1.7,0,0,1,75.4,9.76a5.8,5.8,0,0,1-3.519.214c-.233-.039-.836-.194-1.147-.272a3.909,3.909,0,0,1,3.791-2.586C75.085,7.116,76.679,7.466,76.388,8.671ZM86.05,0a1.413,1.413,0,0,0-1.3,1.011h0L80.84,15.281V15.3l-.583,2.1h5.269L90.308,0ZM66.142.156a3.655,3.655,0,0,0-2.78,1.283L57.14,8.768,54.982.156H49.538l5.074,18.9L71.235.156H66.142ZM13.007,0H4.7L0,17.4H2.7c1.614,0,2.8-.194,3.208-1.75l.778-2.936H9.313c9.177,0,9.857-5.308,10.149-6.358C19.656,5.677,20.336,0,13.007,0Zm1.4,6.1A3.947,3.947,0,0,1,10.363,8.71H7.777l1.38-5.094h2.722C14.5,3.6,14.581,5.463,14.407,6.1Z" 
            transform="translate(360 10.071)"/>
    </g>
</svg>