<?xml version="1.0" encoding="utf-8"?>
<!-- Generator: Adobe Illustrator 16.0.3, SVG Export Plug-In . SVG Version: 6.00 Build 0)  -->
<!DOCTYPE svg PUBLIC "-//W3C//DTD SVG 1.1//EN" "http://www.w3.org/Graphics/SVG/1.1/DTD/svg11.dtd">
<svg version="1.1" id="Camada_1" xmlns="http://www.w3.org/2000/svg" xmlns:xlink="http://www.w3.org/1999/xlink" x="0px" y="0px"
	 width="100px" height="100px" viewBox="0 0 120 120" enable-background="new 0 0 120 120" xml:space="preserve">

<linearGradient id="lg" x1="0.5" y1="1" x2="0.5" y2="0">
        <stop offset="0%" stop-opacity="1" stop-color="#fff"/>
        <stop offset="40%" stop-opacity="1" stop-color="#00BFDF">
           <animate attributeName="offset" values="0;1;0" repeatCount="indefinite" dur="1s" begin="0s"/>
        </stop>
        <stop offset="40%" stop-opacity="0" stop-color="#00BFDF">
           <animate attributeName="offset" values="0;1;0" repeatCount="indefinite" dur="1s"  begin="0s"/>
        </stop>
        <stop offset="100%" stop-opacity="0" stop-color="#00BFDF"/>
</linearGradient>

<circle fill="#00BFDF" cx="60" cy="60" r="60"/>
<circle fill="url(#lg)" cx="60" cy="60" r="60"/>
<g>
	<path fill="#fff" d="M40.11,53.815c-1.791-0.032-4.543,0.383-5.639,0.686c-0.027,0.084-0.919,3.188-0.919,3.188
		s5.543-1.365,7.273,0.006c0.759,0.599,0.506,1.305,0.274,2.004c-0.43-0.115-0.887-0.213-1.361-0.292
		c-0.634-0.103-1.388-0.154-2.243-0.154c-0.99,0-1.958,0.094-2.883,0.28c-0.806,0.166-1.606,0.457-2.439,0.885
		c-0.728,0.375-1.438,0.942-1.896,1.523c-0.58,0.729-0.919,1.472-1.037,2.263c-0.18,1.201,0.292,2.469,1.263,3.393
		c1.272,1.22,3.353,1.681,5.411,1.681c1.749,0,3.274-0.333,4.265-0.673c2.517-0.864,3.91,0.274,3.91,0.274l2.24-8.629
		c0.533-1.956,0.305-3.525-0.678-4.661C44.671,54.456,42.802,53.864,40.11,53.815z M36.517,65.794c-0.623,0-2.414-0.398-2.103-1.75
		c0.121-0.509,0.559-0.971,1.118-1.23c1.652-0.771,3.529-0.335,3.974-0.249c0.266,0.052,0.588,0.162,0.929,0.261
		C40.435,62.825,39.887,65.794,36.517,65.794z"/>
	<path fill="#fff" d="M23.712,49.276h-9.375L9.025,68.879h3.059c1.816,0,3.155-0.216,3.625-1.965l0.867-3.314h2.963
		c10.362,0,11.131-5.976,11.453-7.15C31.206,55.665,31.985,49.276,23.712,49.276z M25.291,56.149
		c-0.206,0.725-1.307,2.926-4.563,2.926H17.81l1.558-5.746h3.069C25.402,53.329,25.498,55.427,25.291,56.149z"/>
	<path fill="#fff" d="M64.188,56.333c-0.504-0.647-2.046-2.522-5.663-2.522c-2.054,0-3.22,0.368-4.553,0.744
		c-2.008,0.567-3.379-0.347-3.379-0.347l-3.824,14.671h5.638c0,0,1.739-6.869,1.993-7.813c0.228-0.86,0.692-2.698,3.122-2.698
		c1.233,0,2.369,0.521,1.848,2.499c-0.125,0.477-2.125,8.012-2.125,8.012h5.592l1.994-7.535c0.264-0.968,0.35-1.888,0.255-2.732
		C64.986,57.746,64.685,56.979,64.188,56.333z"/>
	<path fill="#fff" d="M106.178,49.267c-0.664,0-1.287,0.504-1.469,1.147l-0.006,0.003l-4.408,16.069
		c-0.004,0.01-0.004,0.015-0.004,0.024l-0.654,2.368h5.955l5.383-19.612H106.178z"/>
	<path fill="#fff" d="M83.705,49.458c-1.205,0-2.35,0.531-3.131,1.448l-7.018,8.263l-2.449-9.711h-6.15l5.721,21.275
		l18.762-21.275H83.705z"/>
	<path fill="#fff" d="M99.189,55.488c-1.273-1.214-3.352-1.678-5.41-1.678c-1.75,0-3.498,0.285-4.467,0.658
		c-8.168,3.13-7.396,10.069-4.959,12.396c1.244,1.184,2.531,2.122,5.234,2.329c3.621,0.279,5.719-0.261,7.027-0.771
		c0.078-0.196,0.586-2.183,0.91-3.224c-0.848,0.442-6.125,1.817-8.371,0.246c-0.797-0.556-0.992-1.465-0.762-2.165
		c0.432,0.114,1.086,0.321,1.559,0.4c0.633,0.103,1.391,0.154,2.244,0.154c0.988,0,1.963-0.094,2.881-0.282
		c0.811-0.164,1.607-0.454,2.441-0.885c0.729-0.373,1.436-0.94,1.898-1.521c0.58-0.732,0.92-1.473,1.037-2.264
		C100.629,57.685,100.158,56.414,99.189,55.488z M95.279,59.044c-0.119,0.506-0.561,0.968-1.121,1.231
		c-1.646,0.773-3.525,0.334-3.973,0.248c-0.264-0.052-0.947-0.22-1.291-0.315c0,0,0.908-2.916,4.279-2.916
		C93.799,57.292,95.588,57.692,95.279,59.044z"/>
</g>
</svg>
