<?xml version="1.0" encoding="utf-8"?>
<!-- Generator: Adobe Illustrator 16.0.0, SVG Export Plug-In . SVG Version: 6.00 Build 0)  -->
<!DOCTYPE svg PUBLIC "-//W3C//DTD SVG 1.1//EN" "http://www.w3.org/Graphics/SVG/1.1/DTD/svg11.dtd">
<svg version="1.1" id="Camada_1" xmlns="http://www.w3.org/2000/svg" xmlns:xlink="http://www.w3.org/1999/xlink" x="0px" y="0px"
	 width="338px" height="156px" viewBox="0 0 338 156" enable-background="new 0 0 338 156" xml:space="preserve">
<path fill="#00BFDF" d="M43.668,135.075l0.786,0.924h3.615l-3.43-4.032l-5.945,4.032h3.026c0,0,0.501,0.06,1.042-0.308
	C43.304,135.32,43.668,135.075,43.668,135.075"/>
<g>
	<path fill="#FFFFFF" d="M111.879,137.18c-2.276,0-3.571,0.408-5.051,0.829c-2.226,0.632-3.747-0.385-3.747-0.385l-4.243,16.315
		h6.256c0,0,1.93-7.644,2.208-8.688c0.254-0.958,0.769-3.002,3.464-3.002c1.37,0,2.628,0.577,2.054,2.778
		c-0.14,0.529-2.362,8.912-2.362,8.912h6.205l2.215-8.383c0.291-1.076,0.385-2.099,0.281-3.037
		c-0.109-0.963-0.444-1.813-0.996-2.531C117.608,139.264,115.893,137.18,111.879,137.18"/>
	<path fill="#FFFFFF" d="M84.172,141.495c0,0,6.148-1.522,8.072,0.005c0.839,0.664,0.558,1.449,0.303,2.23
		c-0.477-0.131-0.983-0.238-1.512-0.324c-0.7-0.116-1.537-0.174-2.484-0.174c-1.102,0-2.179,0.102-3.199,0.313
		c-0.898,0.186-1.783,0.508-2.709,0.98c-0.807,0.416-1.593,1.053-2.103,1.689c-0.644,0.814-1.022,1.641-1.153,2.521
		c-0.198,1.332,0.326,2.748,1.404,3.775c1.413,1.354,3.717,1.865,6.001,1.865c1.942,0,3.634-0.371,4.734-0.75
		c2.791-0.963,4.334,0.309,4.334,0.309l2.484-9.6c0.595-2.177,0.341-3.92-0.749-5.186c-1.086-1.258-3.163-1.916-6.149-1.973
		c-1.987-0.035-5.037,0.43-6.255,0.764C85.162,138.041,84.172,141.495,84.172,141.495 M87.462,150.51
		c-0.69,0-2.678-0.443-2.33-1.947c0.132-0.563,0.617-1.078,1.237-1.373c1.832-0.854,3.915-0.369,4.407-0.271
		c0.298,0.059,0.655,0.188,1.032,0.289C91.809,147.204,91.201,150.51,87.462,150.51"/>
	<path fill="#FFFFFF" d="M155.152,149.848c-0.94,0.491-6.796,2.021-9.291,0.273c-0.88-0.621-1.095-1.631-0.839-2.41
		c0.478,0.128,1.201,0.359,1.729,0.446c0.702,0.116,1.539,0.173,2.486,0.173c1.1,0,2.176-0.105,3.198-0.313
		c0.901-0.188,1.785-0.51,2.71-0.983c0.807-0.417,1.593-1.05,2.104-1.693c0.643-0.813,1.021-1.638,1.149-2.519
		c0.201-1.334-0.327-2.747-1.401-3.776c-1.411-1.351-3.717-1.866-6.002-1.866c-1.942,0-3.879,0.319-4.956,0.73
		c-9.061,3.486-8.205,11.201-5.5,13.791c1.379,1.32,2.807,2.361,5.806,2.592c4.015,0.309,6.345-0.296,7.796-0.861
		C154.228,153.213,154.79,151.008,155.152,149.848 M150.328,141.051c0.689,0,2.675,0.447,2.328,1.95
		c-0.129,0.562-0.618,1.079-1.237,1.367c-1.83,0.856-3.915,0.372-4.406,0.274c-0.298-0.061-1.057-0.24-1.434-0.353
		C145.579,144.293,146.586,141.051,150.328,141.051"/>
	<path fill="#FFFFFF" d="M128.558,143.141l-2.717-10.801h-6.821l6.342,23.66l20.819-23.66h-6.362c-1.337,0-2.606,0.59-3.471,1.609
		L128.558,143.141z"/>
	<path fill="#FFFFFF" d="M164.715,132.34c-0.735,0-1.433,0.563-1.629,1.276l-0.009,0.001l-4.854,17.662c0,0.011,0,0.018-0.005,0.025
		l-0.722,2.635h2.758h1.858h1.989l5.937-21.603L164.715,132.34L164.715,132.34z"/>
	<path fill="#FFFFFF" d="M81.334,140.115c0.237-0.873,1.1-7.979-8.081-7.979h-9.139h-0.758h-0.501l-5.895,21.803h3.392
		c2.016,0,3.5-0.236,4.021-2.186l0.964-3.688h3.29C80.121,148.066,80.976,141.42,81.334,140.115 M69.943,143.036h-3.239l1.727-6.394
		h3.408c3.293,0,3.398,2.334,3.166,3.139C74.777,140.587,73.556,143.036,69.943,143.036"/>
	<path fill="#00BFDF" d="M4.826,141.339c0,0,6.148-1.521,8.071,0.005c0.84,0.665,0.559,1.45,0.304,2.231
		c-0.478-0.132-0.983-0.239-1.512-0.324c-0.7-0.116-1.538-0.173-2.487-0.173c-1.099,0-2.176,0.102-3.197,0.313
		c-0.898,0.187-1.784,0.508-2.709,0.982c-0.807,0.416-1.593,1.051-2.102,1.691c-0.646,0.813-1.023,1.638-1.154,2.519
		c-0.196,1.334,0.326,2.749,1.405,3.776c1.411,1.352,3.715,1.865,6.001,1.865c1.942,0,3.634-0.369,4.734-0.748
		c2.792-0.968,4.336,0.307,4.336,0.307l2.484-9.6c0.594-2.178,0.339-3.92-0.75-5.186c-1.088-1.257-3.163-1.916-6.149-1.975
		c-1.986-0.033-5.038,0.431-6.255,0.765C5.816,137.887,4.826,141.339,4.826,141.339 M8.114,150.354c-0.688,0-2.677-0.44-2.328-1.945
		c0.132-0.566,0.617-1.079,1.238-1.373c1.832-0.855,3.916-0.37,4.407-0.273c0.297,0.059,0.653,0.186,1.032,0.288
		C12.463,147.048,11.855,150.354,8.114,150.354"/>
	<path fill="#00BFDF" d="M26.534,132.186c-0.734,0-1.432,0.563-1.631,1.275l-0.007,0.001l-4.855,17.661c0,0.011,0,0.02-0.003,0.027
		l-0.725,2.633h2.758h1.859h1.99l5.936-21.6h-5.322V132.186z"/>
	<path fill="#00BFDF" d="M42.581,137.208c-6.021,0.106-11.465,4.021-12.158,8.745c-0.696,4.727,3.623,8.464,9.649,8.357
		c6.019-0.107,11.465-4.026,12.161-8.748C52.923,140.841,48.605,137.098,42.581,137.208 M45.653,146.533
		c-0.894,2.529-3.56,4.234-5.952,3.808c-2.392-0.429-3.6-2.825-2.704-5.354c0.898-2.529,3.563-4.231,5.953-3.805
		C45.343,141.604,46.552,144.004,45.653,146.533"/>
</g>
<g>
	<path fill="#00BFDF" d="M200.262,155.079l-5.219-3.698c2.736-2.057,4.645-4.799,5.085-7.795c0.907-6.199-4.763-11.111-12.67-10.965
		c-7.899,0.139-15.044,5.279-15.956,11.479c-0.9,6.129,4.63,10.988,12.395,10.963v0.02L200.262,155.079L200.262,155.079z"/>
	<path fill="#FFFFFF" d="M243.559,132.621c-2.572-0.047-6.521,0.554-8.095,0.986c-0.042,0.117-1.325,4.594-1.325,4.594
		s7.965-1.973,10.453,0.007c1.086,0.862,0.721,1.876,0.395,2.888c-0.615-0.169-1.271-0.311-1.957-0.419
		c-0.906-0.151-1.99-0.227-3.221-0.227c-1.422,0-2.813,0.134-4.139,0.405c-1.164,0.234-2.313,0.653-3.509,1.271
		c-1.045,0.542-2.063,1.36-2.726,2.192c-0.836,1.055-1.322,2.119-1.494,3.263c-0.254,1.729,0.426,3.56,1.822,4.892
		c1.822,1.745,4.809,2.413,7.771,2.413c2.509,0,4.696-0.479,6.127-0.969c3.608-1.248,5.612,0.396,5.612,0.396l3.22-12.429
		c0.769-2.817,0.438-5.079-0.976-6.713C250.113,133.543,247.432,132.689,243.559,132.621 M238.398,149.874
		c-0.895,0-3.467-0.575-3.02-2.524c0.169-0.729,0.805-1.396,1.604-1.771c2.369-1.113,5.072-0.479,5.707-0.354
		c0.388,0.073,0.85,0.232,1.342,0.375C244.032,145.596,243.24,149.874,238.398,149.874"/>
	<path fill="#FFFFFF" d="M270.896,132.74c-7.799,0.138-14.852,5.207-15.748,11.324c-0.682,4.633,2.375,8.524,7.289,10.084
		l3.41-4.857c-2.188-1.087-3.164-3.715-2.186-6.479c1.164-3.278,4.611-5.488,7.71-4.937c1.692,0.306,2.912,1.39,3.485,2.833h0.009
		c6.491-0.896,6.27-4.035,6.27-4.035l0.054-0.027C278.963,134.211,275.309,132.658,270.896,132.74 M262.313,154.107
		c0.838,0.254,1.918,0.468,3.064,0.554c5.189,0.397,8.197-0.386,10.075-1.114c0.114-0.283,0.844-3.135,1.307-4.635
		c-1.157,0.607-7.594,2.184-10.972,0.348"/>
	<path fill="#FFFFFF" d="M227.527,134.473c-0.307-0.354-0.811-0.688-1.534-1.021c-0.698-0.313-1.601-0.582-2.679-0.794
		c-1.08-0.211-2.4-0.318-3.924-0.318c-1.707,0-3.35,0.165-4.875,0.487c-1.529,0.323-2.91,0.803-4.104,1.425
		c-1.202,0.626-2.222,1.387-3.027,2.256c-0.817,0.883-1.38,1.874-1.667,2.95c-0.257,0.96-0.219,1.798,0.115,2.492
		c0.322,0.668,0.807,1.253,1.439,1.737c0.621,0.478,1.373,0.888,2.229,1.217c0.85,0.322,1.717,0.613,2.573,0.855
		c0.7,0.227,1.383,0.428,2.04,0.608c0.638,0.176,1.184,0.373,1.625,0.586c0.422,0.202,0.742,0.437,0.96,0.688
		c0.181,0.215,0.228,0.445,0.149,0.733c-0.146,0.538-0.468,0.954-0.98,1.272c-0.532,0.328-1.264,0.494-2.172,0.494
		c-0.938,0-1.789-0.136-2.543-0.397c-0.771-0.271-1.438-0.577-1.986-0.91c-0.568-0.344-1.061-0.653-1.471-0.933
		c-0.471-0.314-0.854-0.471-1.172-0.471c-0.277,0-0.66,0.139-1.205,0.437c-0.502,0.272-1.019,0.596-1.525,0.959
		c-0.525,0.371-0.994,0.753-1.389,1.135c-0.44,0.429-0.684,0.759-0.758,1.042c-0.131,0.473,0.345,0.947,0.711,1.266
		c0.492,0.42,1.22,0.844,2.162,1.258c0.933,0.408,2.074,0.771,3.396,1.08c1.319,0.313,2.81,0.47,4.412,0.47
		c1.638,0,3.208-0.171,4.668-0.509c1.464-0.34,2.795-0.834,3.957-1.471c1.165-0.642,2.166-1.412,2.978-2.295
		c0.821-0.896,1.389-1.908,1.686-3.012c0.303-1.132,0.248-2.096-0.163-2.857c-0.397-0.742-1.005-1.373-1.806-1.871
		c-0.774-0.483-1.676-0.891-2.684-1.201c-0.982-0.307-1.938-0.588-2.843-0.838c-0.603-0.166-1.155-0.332-1.666-0.494
		c-0.495-0.161-0.919-0.338-1.267-0.521c-0.313-0.172-0.551-0.367-0.703-0.589c-0.129-0.187-0.152-0.405-0.082-0.678
		c0.123-0.47,0.477-0.874,1.037-1.204c0.595-0.348,1.316-0.521,2.156-0.521c0.784,0,1.465,0.104,2.02,0.313
		c0.563,0.214,1.061,0.457,1.471,0.72c0.42,0.271,0.771,0.521,1.045,0.733c0.348,0.271,0.639,0.403,0.893,0.403
		c0.311,0,0.729-0.146,1.281-0.438c0.514-0.27,1.021-0.594,1.516-0.965c0.479-0.368,0.926-0.746,1.324-1.129
		c0.438-0.428,0.682-0.76,0.76-1.045C228.002,135.262,227.874,134.876,227.527,134.473"/>
</g>
<g>
	<path fill="#003986" d="M154.996,14.141c-6.38,0-10.014,1.147-14.163,2.328c-6.243,1.772-10.509-1.079-10.509-1.079l-11.896,45.75
		h17.542c0,0,5.411-21.425,6.191-24.363c0.714-2.686,2.155-8.417,9.713-8.417c3.842,0,7.372,1.618,5.761,7.791
		c-0.394,1.487-6.624,24.99-6.624,24.99h17.396l6.214-23.503c0.813-3.018,1.079-5.879,0.785-8.517
		c-0.305-2.7-1.246-5.088-2.793-7.101C171.059,19.984,166.248,14.141,154.996,14.141"/>
	<path fill="#003986" d="M77.304,26.244c0,0,17.241-4.269,22.635,0.014c2.355,1.862,1.566,4.063,0.852,6.257
		c-1.336-0.37-2.757-0.67-4.242-0.912c-1.961-0.326-4.308-0.485-6.966-0.485c-3.089,0-6.106,0.282-8.971,0.879
		c-2.52,0.515-5,1.421-7.596,2.752c-2.262,1.167-4.469,2.949-5.898,4.743c-1.805,2.286-2.865,4.595-3.231,7.065
		c-0.556,3.738,0.915,7.708,3.938,10.589c3.962,3.79,10.422,5.233,16.83,5.233c5.443,0,10.189-1.041,13.275-2.103
		c7.824-2.7,12.153,0.863,12.153,0.863l6.966-26.915c1.67-6.104,0.956-10.992-2.097-14.535c-3.048-3.527-8.87-5.373-17.247-5.534
		c-5.57-0.099-14.124,1.205-17.536,2.142C80.081,16.559,77.304,26.244,77.304,26.244 M86.529,51.521
		c-1.936,0-7.509-1.243-6.531-5.46c0.367-1.588,1.728-3.026,3.467-3.85c5.137-2.399,10.978-1.038,12.361-0.77
		c0.832,0.159,1.834,0.518,2.892,0.811C98.718,42.252,97.014,51.521,86.529,51.521"/>
	<path fill="#003986" d="M276.334,49.665c-2.636,1.377-19.057,5.668-26.053,0.767c-2.465-1.741-3.067-4.573-2.354-6.758
		c1.34,0.359,3.365,1.011,4.846,1.251c1.972,0.326,4.314,0.485,6.97,0.485c3.087,0,6.104-0.298,8.973-0.879
		c2.524-0.523,5.005-1.421,7.599-2.758c2.265-1.169,4.469-2.94,5.9-4.748c1.803-2.281,2.863-4.592,3.221-7.06
		c0.564-3.741-0.916-7.706-3.931-10.592c-3.956-3.784-10.421-5.233-16.829-5.233c-5.445,0-10.876,0.896-13.896,2.048
		c-25.404,9.775-23.006,31.409-15.422,38.671c3.865,3.705,7.869,6.624,16.279,7.267c11.258,0.863,17.79-0.83,21.859-2.415
		C273.739,59.101,275.316,52.918,276.334,49.665 M262.805,24.998c1.934,0,7.502,1.254,6.529,5.469
		c-0.361,1.574-1.732,3.026-3.473,3.833c-5.133,2.404-10.977,1.043-12.354,0.772c-0.836-0.165-2.966-0.673-4.022-0.983
		C249.484,34.089,252.313,24.998,262.805,24.998"/>
	<path fill="#003986" d="M201.764,30.855l-7.621-30.283h-19.127l17.782,66.344l58.376-66.344h-17.839
		c-3.75,0-7.312,1.651-9.733,4.513L201.764,30.855z"/>
	<path fill="#003986" d="M303.146,0.572c-2.063,0-4.017,1.575-4.568,3.579l-0.027,0.002L284.941,53.68c0,0.03,0,0.049-0.018,0.074
		l-2.023,7.385h7.731h5.214h5.573l16.649-60.567H303.146z"/>
	<path fill="#003986" d="M69.347,22.375C70.009,19.927,72.43,0,46.688,0H21.062h-2.126h-1.405L1,61.139h9.51
		c5.653,0,9.814-0.671,11.276-6.128l2.703-10.337h9.224C65.945,44.673,68.341,26.033,69.347,22.375 M37.407,30.565h-9.082
		l4.841-17.928h9.557c9.235,0,9.529,6.545,8.876,8.801C50.961,23.697,47.537,30.565,37.407,30.565"/>
</g>
<g>
	<path fill="#FFFFFF" d="M74.592,70.404c-1.524,0-2.391,0.274-3.381,0.556c-1.49,0.423-2.509-0.258-2.509-0.258l-2.84,10.921h4.188
		c0,0,1.292-5.115,1.478-5.816c0.17-0.641,0.515-2.009,2.319-2.009c0.917,0,1.759,0.387,1.375,1.86
		c-0.093,0.355-1.581,5.965-1.581,5.965h4.153l1.483-5.61c0.194-0.721,0.257-1.404,0.188-2.033
		c-0.073-0.644-0.297-1.214-0.667-1.695C78.427,71.799,77.278,70.404,74.592,70.404"/>
	<path fill="#FFFFFF" d="M56.047,73.293c0,0,4.115-1.019,5.403,0.003c0.562,0.445,0.373,0.97,0.203,1.494
		c-0.319-0.088-0.657-0.16-1.012-0.217c-0.469-0.078-1.028-0.116-1.663-0.116c-0.737,0-1.458,0.067-2.141,0.21
		c-0.602,0.123-1.193,0.339-1.813,0.657c-0.54,0.279-1.066,0.704-1.407,1.132c-0.432,0.546-0.685,1.097-0.772,1.687
		c-0.133,0.892,0.218,1.839,0.94,2.527c0.946,0.905,2.488,1.249,4.017,1.249c1.3,0,2.433-0.248,3.169-0.502
		c1.868-0.646,2.901,0.206,2.901,0.206l1.663-6.425c0.398-1.457,0.228-2.624-0.501-3.469c-0.727-0.842-2.117-1.282-4.116-1.32
		c-1.33-0.024-3.372,0.287-4.187,0.51C56.71,70.981,56.047,73.293,56.047,73.293 M58.249,79.327c-0.462,0-1.792-0.298-1.559-1.303
		c0.088-0.379,0.412-0.723,0.828-0.919c1.226-0.572,2.62-0.248,2.95-0.183c0.199,0.038,0.438,0.123,0.691,0.193
		C61.159,77.115,60.752,79.327,58.249,79.327"/>
	<path fill="#FFFFFF" d="M103.556,78.884c-0.629,0.329-4.549,1.354-6.219,0.183c-0.588-0.414-0.732-1.088-0.561-1.61
		c0.319,0.086,0.804,0.242,1.156,0.299c0.47,0.078,1.03,0.116,1.664,0.116c0.737,0,1.458-0.071,2.142-0.209
		c0.602-0.125,1.195-0.339,1.813-0.659c0.54-0.279,1.066-0.702,1.409-1.133c0.43-0.544,0.684-1.096,0.769-1.685
		c0.134-0.893-0.218-1.839-0.938-2.528c-0.944-0.903-2.487-1.249-4.017-1.249c-1.3,0-2.596,0.214-3.317,0.489
		c-6.064,2.333-5.492,7.497-3.681,9.229c0.923,0.886,1.878,1.582,3.886,1.733c2.687,0.207,4.246-0.196,5.218-0.574
		C102.937,81.137,103.313,79.661,103.556,78.884 M100.327,72.996c0.461,0,1.791,0.299,1.558,1.305
		c-0.085,0.376-0.413,0.722-0.829,0.916c-1.224,0.574-2.619,0.249-2.949,0.184c-0.199-0.04-0.707-0.161-0.959-0.235
		C97.147,75.166,97.821,72.996,100.327,72.996"/>
	<path fill="#FFFFFF" d="M85.756,74.395l-1.819-7.229h-4.565l4.245,15.835L97.55,67.166h-4.258c-0.896,0-1.745,0.394-2.324,1.077
		L85.756,74.395z"/>
	<path fill="#FFFFFF" d="M109.956,67.166c-0.491,0-0.958,0.375-1.09,0.854l-0.006,0.001l-3.249,11.821c0,0.008,0,0.012-0.003,0.02
		l-0.483,1.765h1.846h1.244h1.331l3.975-14.457L109.956,67.166L109.956,67.166z"/>
	<path fill="#FFFFFF" d="M54.148,72.37c0.158-0.585,0.736-5.341-5.409-5.341h-6.117h-0.507H41.78l-3.946,14.594h2.27
		c1.35,0,2.343-0.16,2.691-1.463l0.646-2.468h2.202C53.335,77.692,53.908,73.243,54.148,72.37 M46.523,74.325h-2.167l1.155-4.279
		h2.281c2.205,0,2.275,1.563,2.119,2.101C49.759,72.686,48.941,74.325,46.523,74.325"/>
	<path fill="#00BFDF" d="M2.94,73.189c0,0,4.115-1.019,5.402,0.003c0.562,0.445,0.374,0.971,0.204,1.494
		c-0.32-0.088-0.658-0.161-1.012-0.217c-0.469-0.079-1.029-0.116-1.665-0.116c-0.736,0-1.457,0.067-2.14,0.208
		c-0.601,0.124-1.194,0.34-1.813,0.658c-0.54,0.278-1.066,0.704-1.407,1.132c-0.433,0.546-0.685,1.096-0.772,1.686
		c-0.132,0.893,0.218,1.84,0.94,2.527c0.944,0.902,2.486,1.25,4.017,1.25c1.299,0,2.432-0.248,3.168-0.502
		c1.869-0.646,2.902,0.205,2.902,0.205l1.663-6.426c0.397-1.457,0.227-2.625-0.502-3.47c-0.728-0.842-2.117-1.283-4.116-1.321
		C6.48,70.28,4.437,70.59,3.622,70.814C3.603,70.878,2.94,73.189,2.94,73.189 M5.141,79.223c-0.46,0-1.792-0.295-1.558-1.303
		c0.088-0.38,0.412-0.723,0.828-0.92c1.225-0.573,2.621-0.248,2.949-0.183c0.2,0.038,0.438,0.123,0.69,0.193
		C8.051,77.01,7.644,79.223,5.141,79.223"/>
	<path fill="#00BFDF" d="M17.469,67.062c-0.49,0-0.958,0.375-1.091,0.854l-0.004,0.001l-3.25,11.819c0,0.009,0,0.014-0.001,0.02
		l-0.485,1.764h1.846h1.245h1.332l3.973-14.458H17.469L17.469,67.062z"/>
	<path fill="#00BFDF" d="M28.938,68.997l0.526,0.618h2.42l-2.296-2.699l-3.979,2.699h2.024c0,0,0.336,0.041,0.698-0.206
		C28.693,69.161,28.938,68.997,28.938,68.997"/>
	<path fill="#00BFDF" d="M28.209,70.424c-4.03,0.072-7.674,2.692-8.137,5.853c-0.466,3.165,2.425,5.667,6.458,5.595
		c4.028-0.072,7.673-2.696,8.139-5.856C35.132,72.855,32.242,70.35,28.209,70.424 M30.266,76.665
		c-0.598,1.694-2.383,2.835-3.984,2.55c-1.601-0.287-2.41-1.893-1.81-3.584c0.601-1.696,2.385-2.835,3.984-2.547
		C30.058,73.367,30.867,74.972,30.266,76.665"/>
</g>
<g>
	<path fill="#00BFDF" d="M133.748,82.387l-3.493-2.477c1.832-1.376,3.108-3.212,3.404-5.217c0.607-4.15-3.188-7.437-8.48-7.339
		c-5.288,0.093-10.069,3.533-10.68,7.683c-0.603,4.102,3.099,7.354,8.296,7.337v0.013H133.748z"/>
	<path fill="#FFFFFF" d="M162.727,67.354c-1.721-0.031-4.366,0.37-5.418,0.661c-0.028,0.078-0.887,3.074-0.887,3.074
		s5.33-1.319,6.997,0.005c0.727,0.578,0.482,1.255,0.263,1.932c-0.413-0.113-0.852-0.208-1.31-0.281
		c-0.608-0.101-1.334-0.151-2.156-0.151c-0.952,0-1.884,0.089-2.77,0.272c-0.779,0.158-1.548,0.438-2.349,0.85
		c-0.699,0.363-1.382,0.911-1.824,1.468c-0.559,0.705-0.885,1.418-1,2.183c-0.17,1.156,0.284,2.381,1.219,3.271
		c1.222,1.17,3.218,1.614,5.203,1.614c1.679,0,3.146-0.317,4.101-0.646c2.417-0.834,3.758,0.268,3.758,0.268l2.154-8.319
		c0.512-1.886,0.293-3.399-0.652-4.493C167.115,67.971,165.32,67.4,162.727,67.354 M159.274,78.902c-0.597,0-2.32-0.385-2.02-1.69
		c0.113-0.487,0.536-0.935,1.073-1.187c1.585-0.745,3.395-0.322,3.82-0.237c0.258,0.05,0.567,0.156,0.896,0.25
		C163.044,76.038,162.514,78.902,159.274,78.902"/>
	<path fill="#FFFFFF" d="M181.023,67.434c-5.219,0.092-9.938,3.485-10.541,7.58c-0.453,3.101,1.592,5.707,4.879,6.75l2.283-3.252
		c-1.461-0.727-2.117-2.487-1.461-4.336c0.777-2.194,3.088-3.673,5.158-3.302c1.137,0.203,1.949,0.929,2.334,1.896h0.008
		c4.346-0.599,4.194-2.701,4.194-2.701l0.033-0.02C186.424,68.418,183.979,67.379,181.023,67.434 M175.279,81.734
		c0.561,0.17,1.283,0.313,2.051,0.371c3.475,0.267,5.486-0.258,6.744-0.746c0.076-0.188,0.564-2.101,0.874-3.104
		c-0.775,0.407-5.083,1.461-7.345,0.232"/>
	<path fill="#FFFFFF" d="M151.998,68.593c-0.206-0.239-0.542-0.461-1.028-0.683c-0.467-0.21-1.07-0.39-1.792-0.531
		c-0.724-0.141-1.606-0.213-2.626-0.213c-1.143,0-2.24,0.11-3.263,0.326c-1.022,0.216-1.948,0.537-2.747,0.954
		c-0.805,0.419-1.486,0.928-2.026,1.51c-0.547,0.591-0.924,1.255-1.115,1.975c-0.172,0.642-0.146,1.203,0.077,1.668
		c0.216,0.447,0.541,0.838,0.964,1.164c0.416,0.319,0.919,0.593,1.493,0.813c0.567,0.216,1.149,0.411,1.723,0.575
		c0.469,0.149,0.925,0.285,1.366,0.407c0.426,0.118,0.792,0.249,1.087,0.392c0.282,0.136,0.498,0.292,0.642,0.461
		c0.121,0.144,0.152,0.3,0.101,0.492c-0.097,0.361-0.312,0.639-0.656,0.853c-0.357,0.219-0.845,0.332-1.453,0.332
		c-0.627,0-1.199-0.09-1.702-0.268c-0.515-0.182-0.962-0.386-1.331-0.609c-0.38-0.23-0.708-0.438-0.983-0.623
		c-0.314-0.211-0.572-0.315-0.785-0.315c-0.187,0-0.442,0.092-0.806,0.291c-0.335,0.183-0.681,0.398-1.022,0.642
		c-0.353,0.248-0.665,0.503-0.929,0.76c-0.295,0.286-0.457,0.507-0.507,0.697c-0.087,0.313,0.23,0.635,0.476,0.846
		c0.329,0.281,0.815,0.565,1.447,0.843c0.624,0.272,1.389,0.519,2.274,0.726c0.884,0.208,1.878,0.313,2.953,0.313
		c1.096,0,2.146-0.115,3.124-0.342c0.98-0.229,1.871-0.559,2.649-0.982c0.78-0.43,1.45-0.944,1.992-1.537
		c0.551-0.598,0.929-1.275,1.127-2.013c0.202-0.758,0.167-1.402-0.109-1.914c-0.267-0.497-0.673-0.918-1.208-1.252
		c-0.519-0.325-1.122-0.595-1.794-0.805c-0.66-0.204-1.295-0.393-1.903-0.559c-0.402-0.111-0.774-0.222-1.115-0.332
		c-0.332-0.108-0.616-0.225-0.846-0.348c-0.211-0.115-0.37-0.247-0.47-0.395c-0.087-0.124-0.104-0.272-0.056-0.454
		c0.083-0.313,0.318-0.585,0.695-0.806c0.396-0.231,0.881-0.348,1.443-0.348c0.525,0,0.98,0.07,1.35,0.209
		c0.377,0.143,0.71,0.306,0.984,0.482c0.281,0.182,0.516,0.348,0.699,0.491c0.231,0.182,0.426,0.271,0.596,0.271
		c0.208,0,0.489-0.096,0.858-0.292c0.344-0.179,0.685-0.397,1.014-0.646c0.321-0.247,0.62-0.499,0.887-0.755
		c0.294-0.286,0.456-0.506,0.508-0.699C152.314,69.121,152.229,68.863,151.998,68.593"/>
</g>
<g>
	<path fill="#017891" d="M239.702,100.197v4.371c-0.785-0.246-1.621-0.344-2.479-0.344c-2.824,0.049-4.225,1.547-4.225,4.441v2.063
		c0,1.008,0.195,2.824,1.252,3.78c0.663,0.614,1.77,0.886,2.825,0.886c1.006,0,1.94-0.244,3.045-0.813l0.194,0.613h2.506v-15.004
		h-3.118V100.197L239.702,100.197z M239.702,112.623c-0.736,0.146-1.326,0.223-1.769,0.223c-1.449,0-1.844-0.492-1.844-1.916v-2.285
		c0-1.396,0.469-1.891,1.844-1.891c0.611,0,1.203,0.073,1.769,0.196V112.623z"/>
	<path fill="#017891" d="M231.182,108.768c0-1.521-0.244-2.8-1.252-3.607c-0.91-0.764-1.892-0.936-3.365-0.936
		c-1.151,0-2.848,0.073-3.758,1.059c-1.129,1.029-1.351,2.896-1.351,4.566c0,2.086,0.442,4.074,1.916,4.86
		c1.007,0.563,2.259,0.663,3.634,0.663c0.762,0,1.915-0.122,3.414-0.417v-2.333c-1.744,0.441-3.24,0.518-4.492,0.271
		c-1.033-0.271-1.353-0.713-1.353-2.211h6.481C231.156,109.922,231.182,109.283,231.182,108.768z M228.186,108.669H224.6
		c0.172-1.424,0.713-2.063,1.965-2.063h0.074C227.792,106.605,228.283,107.294,228.186,108.669z"/>
	<path fill="#017891" d="M215.563,104.225c-0.908,0-2.014,0.319-3.338,0.982c-0.615-0.663-1.646-0.982-3.168-0.982
		c-0.836,0-1.795,0.271-2.875,0.785l-0.17-0.613h-2.531v10.808h3.168v-8.151c0.59-0.195,1.183-0.296,1.793-0.296
		c1.203,0,1.547,0.491,1.547,1.621v6.826h3.146v-6.899c0-0.418,0-0.812-0.048-1.203c0.518-0.195,1.352-0.345,1.842-0.345
		c1.303,0,1.549,0.663,1.549,1.621v6.826h3.168v-6.876c0-1.104-0.123-2.211-0.834-3.021
		C218.189,104.52,216.938,104.225,215.563,104.225z"/>
	<path fill="#017891" d="M199.477,100c-1.228,0-1.719,0.32-1.719,1.548v0.146c0,1.183,0.395,1.551,1.719,1.551
		c1.229,0,1.695-0.319,1.695-1.551v-0.146C201.172,100.32,200.706,100,199.477,100z M201.023,104.396h-3.117v10.806h3.117V104.396z"
		/>
	<path fill="#017891" d="M195.4,100.197h-3.118v12.426c-0.736,0.146-1.325,0.223-1.769,0.223c-1.449,0-1.844-0.492-1.844-1.916
		v-1.695c0-0.146-0.146-0.194-0.246-0.098l-2.627,2.85c-0.05,0.072-0.098,0.174-0.072,0.271c0.146,0.958,0.517,1.721,1.104,2.262
		c0.663,0.611,1.77,0.883,2.82,0.883c1.011,0,1.94-0.244,3.049-0.813l0.195,0.614h2.504v-15.006L195.4,100.197L195.4,100.197z"/>
	<path fill="#ADADAD" d="M170.402,105.107c-0.688-0.59-1.623-0.883-2.824-0.883c-1.032,0-2.087,0.293-3.069,0.782l-0.196-0.612
		h-2.505V119.4h3.119v-4.371c0.761,0.244,1.596,0.344,2.479,0.344c2.8-0.049,4.225-1.547,4.225-4.443v-2.039
		C171.631,107.711,171.409,106.018,170.402,105.107z M168.511,110.93c0,1.424-0.491,1.938-1.866,1.938
		c-0.565,0-1.154-0.073-1.744-0.222h0.025v-5.672c0.688-0.147,1.276-0.224,1.743-0.224c1.449,0,1.841,0.466,1.841,1.894v2.285
		H168.511L168.511,110.93z"/>
	<path fill="#ADADAD" d="M159.327,104.396h-3.143v8.129c-0.614,0.222-1.252,0.32-1.916,0.32c-0.27,0-0.982-0.025-1.253-0.52
		c-0.27-0.441-0.294-0.614-0.294-1.915v-6.021h-3.143v6.877c0,1.154,0.172,2.285,0.811,3.021c0.688,0.785,1.842,1.08,3.242,1.08
		c0.933,0,1.915-0.245,2.972-0.762l0.196,0.59h2.529L159.327,104.396L159.327,104.396z"/>
	<path fill="#ADADAD" d="M148.031,104.2c-1.154,0-2.75,0.44-3.979,1.13l-0.27-0.936h-2.603v10.807h3.144v-7.809
		c0.737-0.246,1.989-0.369,3.708-0.442L148.031,104.2L148.031,104.2z"/>
	<path fill="#ADADAD" d="M138.698,113.777v-9.383h-2.505l-0.196,0.612c-0.982-0.489-2.039-0.782-3.07-0.782
		c-1.056,0-2.161,0.27-2.824,0.883c-0.982,0.91-1.228,2.455-1.228,3.783v2.039c0,2.896,1.424,4.395,4.249,4.44
		c0.785,0,1.571-0.101,2.382-0.315c-0.073,2.329-2.357,2.135-4.077,2.135h-2.038v2.457h0.908c3.414,0,6.238-0.271,7.367-1.744
		C138.771,116.43,138.698,115.152,138.698,113.777z M135.579,112.646c-0.589,0.146-1.179,0.222-1.768,0.222
		c-1.351,0-1.867-0.515-1.867-1.915l0.025-2.284c0-1.424,0.417-1.915,1.842-1.915c0.491,0,1.056,0.073,1.768,0.221V112.646
		L135.579,112.646z"/>
	<path fill="#ADADAD" d="M189.802,104.225c-1.67,0.024-2.308,0.271-3.167,1.153l-6.091,6.509c-0.786,0.813-1.253,0.959-1.989,0.959
		c-1.521,0-2.037-0.395-2.037-1.893v-2.309c0-1.522,0.519-1.894,2.037-1.894c1.498,0,1.989,0.396,1.989,1.894v1.692
		c0,0.146,0.147,0.196,0.246,0.101l2.774-2.996c0.074-0.072,0.121-0.196,0.074-0.295c-0.146-0.59-0.47-1.353-1.06-1.793
		c-0.957-0.859-2.749-1.129-3.979-1.129c-1.353,0-2.85,0.27-4.004,1.129c-0.785,0.688-1.18,1.769-1.18,3.291l0.051,2.922
		c0,0.934,0.491,2.187,1.153,2.701c1.13,0.834,2.528,1.129,4.003,1.129c2.21,0,3.045-0.295,4.197-1.521l5.847-6.288
		c0.59-0.662,0.958-0.834,1.843-0.834h0.907v-2.405C190.883,104.249,190.367,104.225,189.802,104.225z"/>
</g>
<g>
	<path fill="#FFFFFF" d="M306.646,90.367c-1.77-0.868-4.563-2.655-5.291-3.396c0.879-0.171,1.75-0.255,2.582-0.529
		c0.11-0.121,0.272-0.108,0.418-0.148c0.088-0.021,0.168-0.077,0.164-0.078c-0.037-0.007-0.148,0.09-0.278,0.102
		c-0.195,0.074-0.406-0.059-0.601,0.039c-1.688,0.029-3.265-0.319-4.623-1.383c-0.084-0.064-0.16-0.139-0.319-0.275
		c1.329,0.015,2.538-0.192,3.715-0.594c-2.267-0.396-4.431-0.947-5.806-3.039c1.39,0.348,2.771,0.701,4.229,0.641
		c-0.413-0.155-0.828-0.305-1.236-0.467c-2.229-0.873-4.311-1.98-5.934-3.794c-0.668-0.746-1.202-1.576-1.479-2.551
		c-0.029-0.104-0.059-0.209-0.078-0.315c-0.012-0.059-0.006-0.12-0.014-0.281c2.188,1.705,4.415,3.201,7.064,3.957
		c-4.608-2.949-8.307-6.578-9.436-12.226c0.207-0.023,0.239,0.081,0.291,0.15c2.762,3.782,6.399,6.374,10.762,8.016
		c1.896,0.713,3.824,1.352,5.615,2.319c1.51,0.816,2.799,1.885,3.746,3.334c0.114,0.18,0.209,0.375,0.313,0.563
		c0.129,0.984-0.109,1.932-0.318,2.88c-0.524,2.416-1.487,4.644-2.942,6.649C307.055,90.127,306.955,90.383,306.646,90.367z"/>
	<path fill="#FFFFFF" d="M306.646,90.367c0.567-0.499,0.91-1.17,1.295-1.797c1.215-1.979,1.896-4.155,2.31-6.422
		c0.104-0.574,0.14-1.162,0.206-1.746c0.566,0.761,0.813,1.662,1.102,2.539c0.256,0.773,0.469,1.563,0.725,2.424
		c1.054-1.6,2.339-2.895,3.979-3.811c1.648-0.924,3.414-1.309,5.313-1.113c-0.092,0.045-0.186,0.094-0.277,0.132
		c-0.941,0.383-1.419,1.101-1.533,2.095c-0.141,1.23-0.264,2.469-0.828,3.602c-0.164,0.332-0.348,0.655-0.594,1.115
		c1.242-0.707,2.389-1.365,3.736-1.465c-0.407,0.709-0.93,1.336-1.436,1.975c-1.341,1.682-2.886,3.147-4.582,4.459
		c-0.207,0.16-0.429,0.309-0.66,0.428c-1.922,1.511-4.106,2.527-6.387,3.352c-4.623,1.668-9.375,2.066-14.24,1.219
		c0.438-0.095,0.877-0.18,1.313-0.281c4.126-0.983,7.555-3.116,10.327-6.313C306.508,90.641,306.652,90.548,306.646,90.367z"/>
	<path fill="#FFFFFF" d="M315.396,92.779c0.455-0.508,1.035-0.868,1.557-1.297c1.816-1.49,3.348-3.233,4.712-5.135
		c0.119-0.166,0.244-0.313,0.409-0.431c1.498-0.187,2.923,0.187,4.339,0.597c1.955,0.564,3.926,1.021,5.981,0.947
		c1.765-0.063,3.469-0.424,5.139-0.975c0.115-0.036,0.229-0.073,0.461-0.146c-1.016,1.016-2.131,1.626-3.348,2.07
		c-2.074,0.758-4.229,0.896-6.412,0.831c-0.039,0.007-0.049,0.026-0.022,0.063c0.013,0.014,0.022,0.021,0.036,0.021
		c1.751,0.374,3.52,0.466,5.338,0.312c-0.139,0.307-0.418,0.405-0.658,0.524c-1.156,0.567-2.396,0.69-3.658,0.622
		c-0.801-0.045-1.597-0.166-2.396-0.256c-0.06-0.018-0.12-0.039-0.183-0.023c-0.053,0.014-0.104-0.011-0.155,0.002
		c0.032,0.051,0.098,0.063,0.121,0.12c0.639,0.321,1.332,0.489,2.146,0.728c-1.576,0.523-2.951,0.125-4.438-0.396
		c0.604,0.6,1.186,1.005,1.872,1.41c-0.635,0.088-1.174,0.029-1.711-0.086c-0.521-0.113-1.002-0.361-1.553-0.475
		c0.313,0.248,0.631,0.496,0.99,0.785c-0.548,0.174-1.066,0.203-1.574,0.254c-2.134,0.215-4.264,0.23-6.393-0.041
		C315.798,92.784,315.596,92.788,315.396,92.779z"/>
	<g>
		<path fill="#FFFFFF" d="M189.238,83.909c0.623-2.828,2.601-4.435,5.479-4.44c1.104-0.001,2.195,0.109,3.284,0.274
			c0.449,0.069,0.671,0.276,0.615,0.739c-0.007,0.045,0,0.094,0,0.14c0,1.179-0.009,1.171-1.206,1.063
			c-0.85-0.076-1.699-0.141-2.553-0.146c-1.764-0.009-2.887,0.801-3.229,2.522c-0.402,2.017-0.429,4.07,0.051,6.084
			c0.367,1.547,1.463,2.326,3.047,2.338c1.069,0.009,2.135-0.078,3.199-0.172c0.594-0.051,0.692,0.049,0.688,0.637
			c-0.015,1.219,0.22,1.232-1.267,1.435c-1.17,0.158-2.351,0.284-3.521,0.121c-2.438-0.337-4.023-1.871-4.579-4.302
			c-0.103-0.443-0.433-2.867-0.272-4.777C188.979,85.336,189.146,84.32,189.238,83.909z"/>
		<path fill="#FFFFFF" d="M250.971,79.466c1.521,0.015,2.741,0.13,3.951,0.313c0.631,0.095,0.707,0.203,0.707,0.854
			c0.001,1.129-0.023,1.141-1.146,1.035c-1.373-0.125-2.752-0.202-4.131-0.148c-0.246,0.008-0.492,0.051-0.734,0.09
			c-1.313,0.211-1.412,1.687-0.771,2.375c0.342,0.367,0.754,0.644,1.182,0.896c1.021,0.613,2.043,1.228,3.066,1.835
			c0.508,0.305,0.992,0.639,1.436,1.026c1.611,1.423,1.867,3.829,0.56,5.386c-0.694,0.829-1.655,1.182-2.688,1.32
			c-1.924,0.263-3.834,0.066-5.73-0.277c-0.406-0.07-0.589-0.313-0.591-0.751c-0.001-1.188-0.006-1.194,1.188-1.092
			c1.508,0.133,3.02,0.336,4.539,0.176c1.189-0.125,1.754-0.776,1.697-1.942c-0.018-0.377-0.179-0.685-0.434-0.949
			c-0.473-0.502-1.069-0.836-1.648-1.196c-1.209-0.75-2.499-1.373-3.627-2.253c-1.167-0.911-1.859-2.053-1.681-3.607
			c0.171-1.468,0.942-2.396,2.392-2.798C249.407,79.506,250.334,79.443,250.971,79.466z"/>
		<path fill="#FFFFFF" d="M201.84,84.313c0-3.054-0.001-6.107,0-9.164c0-0.784,0.107-0.893,0.871-0.893
			c0.311,0,0.621,0.006,0.93-0.001c0.414-0.011,0.592,0.208,0.604,0.596c0.004,0.094,0.001,0.187,0.001,0.28
			c0,6.109,0,12.219,0,18.326c0,0.843-0.082,0.923-0.934,0.923c-0.279,0-0.562-0.01-0.838,0.003
			c-0.414,0.021-0.593-0.208-0.629-0.582c-0.017-0.139-0.008-0.279-0.008-0.418C201.84,90.359,201.84,87.338,201.84,84.313z"/>
		<path fill="#FFFFFF" d="M273.766,84.287c0-3.1-0.002-6.2,0-9.3c0-0.632,0.096-0.728,0.726-0.73
			c0.354-0.001,0.712,0.004,1.067-0.001c0.361-0.005,0.545,0.175,0.563,0.531c0.005,0.107,0.003,0.216,0.003,0.325
			c0,6.123,0,12.246,0,18.367c0,0.834-0.066,0.901-0.898,0.901c-0.248,0-0.496,0.002-0.744,0c-0.592-0.003-0.711-0.116-0.715-0.7
			c-0.002-1.009,0-2.017,0-3.021C273.766,88.534,273.766,86.41,273.766,84.287z"/>
		<path fill="#FFFFFF" d="M237.104,87.289c0-2.045,0-4.094,0-6.139c0-0.649,0.1-0.791,0.713-1.027
			c1.396-0.541,2.865-0.615,4.342-0.65c0.354-0.01,0.713,0.012,1.066-0.006c0.369-0.018,0.555,0.125,0.543,0.508
			c-0.011,0.357-0.011,0.715,0,1.071c0.01,0.354-0.146,0.492-0.504,0.494c-1.037,0.01-2.074,0.021-3.104,0.16
			c-0.676,0.092-0.678,0.083-0.678,0.735c0,3.705,0,7.41,0,11.111c0,0.729-0.104,0.83-0.828,0.831c-0.295,0-0.59,0.004-0.885-0.001
			c-0.496-0.008-0.662-0.17-0.664-0.673c-0.006-1.458-0.002-2.915-0.002-4.372C237.104,88.652,237.104,87.971,237.104,87.289z"/>
		<path fill="#FFFFFF" d="M269.871,87.027c0-2.076-0.006-4.154,0.005-6.232c0.003-0.383-0.114-0.605-0.508-0.697
			c-1.849-0.436-3.716-0.707-5.615-0.605c-2.5,0.131-4.237,1.498-4.862,3.925c-0.574,2.233-0.537,4.521-0.104,6.772
			c0.488,2.547,2.003,3.979,4.574,4.305c2.063,0.263,4.104-0.096,6.117-0.59c0.363-0.09,0.396-0.37,0.396-0.688
			C269.867,91.152,269.871,89.09,269.871,87.027z M267.051,92.376c-1.031,0.103-2.063,0.271-3.1,0.163
			c-1.594-0.161-2.484-0.982-2.829-2.548c-0.31-1.396-0.177-2.808-0.194-4.214c-0.008-0.573,0.066-1.141,0.188-1.702
			c0.356-1.675,1.382-2.55,3.083-2.593c0.975-0.023,1.943,0.063,2.912,0.188c0.338,0.045,0.389,0.184,0.388,0.477
			c-0.015,1.627-0.006,3.254-0.006,4.881c0,1.611-0.015,3.223,0.01,4.832C267.506,92.221,267.391,92.344,267.051,92.376z"/>
		<path fill="#FFFFFF" d="M282.352,87.768c1.396,0.012,2.791,0.004,4.188,0.004c1.362,0,2.729,0.002,4.093,0
			c0.646,0,0.791-0.129,0.791-0.787c0-0.633,0.002-1.271-0.057-1.9c-0.275-2.921-1.854-5.229-5.038-5.566
			c-3.218-0.34-5.869,1.231-6.571,4.744c-0.343,1.717-0.295,3.467-0.074,5.188c0.367,2.916,2.063,4.61,4.939,5.024
			c1.732,0.25,3.464,0.053,5.18-0.233c1.238-0.205,1.229-0.229,1.19-1.534c-0.011-0.357-0.154-0.523-0.505-0.491
			c-0.479,0.046-0.953,0.11-1.435,0.153c-1.31,0.115-2.618,0.303-3.937,0.146c-1.244-0.146-2.178-0.754-2.701-1.922
			c-0.352-0.779-0.441-1.604-0.469-2.445C281.941,87.822,282.063,87.766,282.352,87.768z M281.958,85.747
			c0.032-1.283,0.226-2.524,1.269-3.408c1.145-0.964,2.479-1.001,3.808-0.509c1.325,0.492,1.754,1.668,1.909,2.949
			c0.148,1.188,0.125,1.191-1.059,1.191c-0.82,0-1.641,0-2.462,0c-1.036,0-2.075,0.002-3.112,0
			C282.15,85.971,281.95,86.027,281.958,85.747z"/>
		<path fill="#FFFFFF" d="M219.418,84.553c-0.389-2.841-2.134-4.682-4.952-5.027c-3.128-0.385-5.709,1.125-6.485,4.305
			c-0.51,2.085-0.463,4.225-0.051,6.316c0.428,2.182,1.771,3.637,3.951,4.162c2.28,0.551,4.557,0.205,6.817-0.229
			c0.237-0.047,0.372-0.221,0.388-0.464c0.014-0.2,0.012-0.401,0.012-0.604c0.002-0.807-0.072-0.891-0.888-0.771
			c-1.29,0.183-2.588,0.258-3.885,0.343c-2.005,0.132-3.458-0.765-3.995-2.479c-0.195-0.625-0.242-1.271-0.268-1.926
			c-0.017-0.332,0.104-0.416,0.422-0.412c1.395,0.018,2.791,0.006,4.185,0.006c1.381,0,2.761,0.004,4.142,0
			c0.563,0,0.707-0.127,0.713-0.666C219.531,86.253,219.534,85.4,219.418,84.553z M216.738,85.979
			c-1.053-0.015-2.104-0.006-3.156-0.006c-1.038,0-2.076-0.015-3.113,0.008c-0.339,0.01-0.427-0.111-0.402-0.428
			c0.041-0.556,0.092-1.109,0.268-1.644c0.628-1.884,1.979-2.406,3.42-2.353c1.876,0.067,2.873,0.963,3.229,2.726
			c0.091,0.438,0.123,0.887,0.134,1.337C217.121,85.912,217.018,85.982,216.738,85.979z"/>
		<path fill="#FFFFFF" d="M233.49,87.049c0-2.078-0.01-4.154,0.009-6.232c0.004-0.438-0.156-0.646-0.573-0.74
			c-1.76-0.396-3.535-0.654-5.342-0.6c-2.671,0.082-4.506,1.496-5.107,4.101c-0.522,2.271-0.519,4.592-0.004,6.864
			c0.531,2.346,2.032,3.758,4.449,4.045c2.088,0.25,4.139-0.088,6.164-0.572c0.372-0.089,0.408-0.354,0.408-0.678
			C233.486,91.172,233.49,89.111,233.49,87.049z M230.717,92.37c-1.031,0.106-2.063,0.274-3.102,0.17
			c-1.627-0.162-2.565-0.96-2.859-2.563c-0.363-1.965-0.363-3.955-0.003-5.918c0.312-1.699,1.416-2.554,3.142-2.576
			c0.961-0.014,1.916,0.066,2.871,0.195c0.31,0.04,0.373,0.151,0.373,0.438c-0.014,1.644-0.008,3.287-0.008,4.932
			c0,1.612-0.011,3.227,0.01,4.837C231.145,92.221,231.049,92.335,230.717,92.37z"/>
	</g>
</g>
<g>
	<path fill="#FFFFFE" stroke="#FFFFFE" stroke-width="2" d="M122.991,131.119v-2.881h-1.03v-0.588h2.756v0.588h-1.026v2.881H122.991
		z"/>
	<path fill="#FFFFFE" stroke="#FFFFFE" stroke-width="2" d="M125.159,131.119v-3.469h1.048l0.629,2.365l0.623-2.365h1.048v3.469
		h-0.648l-0.001-2.729l-0.688,2.729h-0.674l-0.687-2.729l-0.001,2.729H125.159z"/>
</g>
<g>
	<polygon fill="#FFFFFF" points="24.83,119.512 24.83,119.512 24.826,119.512 	"/>
	<path fill="#00BFDF" d="M21.908,131.561c-12.071,0-21.852-10.871-21.852-24.285l0,0c0-13.396,9.78-24.271,21.852-24.271h20.408
		c12.058,0,21.843,10.876,21.843,24.271l0,0c0,13.414-9.785,24.285-21.843,24.285H21.908z"/>
	<path fill="#00BFDF" d="M86.012,131.561c-12.077,0-21.858-10.871-21.858-24.285l0,0c0-13.396,9.781-24.271,21.858-24.271h20.063
		c12.063,0,21.846,10.876,21.846,24.271l0,0c0,13.414-9.783,24.285-21.846,24.285H86.012z"/>
	<path fill="#FFFFFF" d="M78.259,106.152c0,7.693-6.243,13.934-13.935,13.934c-7.697,0-13.937-6.238-13.937-13.934
		c0-7.697,6.24-13.938,13.937-13.938C72.017,92.216,78.259,98.455,78.259,106.152z"/>
	<polygon fill="#00BFDF" points="72.928,106.159 61.583,117.503 61.583,94.803 	"/>
	<g>
		<circle fill="#FFFFFF" cx="29.107" cy="93.648" r="3.408"/>
		<path fill="#FFFFFF" d="M41.036,108.984v-3.406c-2.625,0.033-5.266-1.279-6.936-3.119l-2.197-2.438
			c-0.29-0.324-0.649-0.578-1.042-0.768c-0.017,0-0.017-0.021-0.034-0.021H30.81c-0.596-0.34-1.278-0.508-2.027-0.439
			c-1.791,0.15-3.085,1.738-3.085,3.525v10.07c0,1.875,1.534,3.408,3.408,3.408h8.521v8.521h3.408v-9.373
			c0-1.873-1.535-3.408-3.408-3.408h-5.112v-5.879C34.714,107.486,38.054,108.969,41.036,108.984z M30.522,117.506
			c-0.699,1.977-2.589,3.408-4.822,3.408c-2.829,0-5.112-2.283-5.112-5.113c0-2.232,1.431-4.105,3.408-4.822v-3.525
			c-3.884,0.783-6.816,4.229-6.816,8.35c0,4.703,3.817,8.521,8.521,8.521c4.124,0,7.565-2.936,8.35-6.816L30.522,117.506
			L30.522,117.506z"/>
	</g>
	<path fill="#FFFFFF" d="M103.553,89.363H90.522c-2.704,0-4.887,2.184-4.887,4.887v26.063c0,2.703,2.183,4.889,4.887,4.889h13.031
		c2.704,0,4.887-2.186,4.887-4.889V94.25C108.439,91.547,106.257,89.363,103.553,89.363z M100.295,121.941H93.78v-1.629h6.515
		V121.941z M105.589,117.055H88.486V94.25h17.103V117.055L105.589,117.055z"/>
</g>
</svg>
