<?xml version="1.0" encoding="utf-8"?>
<!-- Generator: Adobe Illustrator 23.0.3, SVG Export Plug-In . SVG Version: 6.00 Build 0)  -->
<svg version="1.1" id="Capa_1" xmlns="http://www.w3.org/2000/svg" xmlns:xlink="http://www.w3.org/1999/xlink" x="0px" y="0px"
	 viewBox="0 0 2918.6 610" style="enable-background:new 0 0 2918.6 610;" xml:space="preserve">
<style type="text/css">
	.st0{fill:#00BFDF;}
	.st1{fill:#FAFAFA;}
	.st2{enable-background:new    ;}
	.st3{fill:#143C8D;}
</style>
<path class="st0" d="M271.1,18H271l0,0C129.8,18,15,132.8,15,274c0,56,18,107.9,48.7,150l-31.9,95.1l98.4-31.5
	C170.7,514.5,219,530,271.1,530C412.2,530,527,415.2,527,274S412.2,18,271.1,18z"/>
<path class="st1" d="M406.6,373.8c-5.5,15.4-27.2,28.2-44.4,32c-11.9,2.5-27.3,4.5-79.4-17.1c-66.6-27.6-109.5-95.3-112.9-99.7
	c-3.2-4.4-26.9-35.9-26.9-68.3s16.6-48.3,23.2-55.2c5.5-5.6,14.5-8.1,23.2-8.1c2.8,0,5.3,0.2,7.6,0.3c6.6,0.3,10,0.7,14.4,11.2
	c5.5,13.2,18.8,45.7,20.4,49c1.6,3.4,3.2,7.9,1,12.3c-2.1,4.5-4,6.6-7.3,10.4c-3.4,3.8-6.6,6.8-9.8,11c-3.1,3.6-6.6,7.4-2.7,14.1
	c3.9,6.6,17.2,28.2,36.7,45.7c25.3,22.5,45.8,29.7,53.1,32.8c5.5,2.3,12,1.8,15.9-2.5c5-5.5,11.3-14.5,17.7-23.5
	c4.5-6.4,10.3-7.2,16.3-5c6.1,2.1,38.5,18.1,45.2,21.4c6.6,3.4,11.1,5,12.7,7.7C412.1,345.2,412.1,358.3,406.6,373.8z"/>
<g class="st2">
	<path class="st3" d="M617.9,138.8c7.8-2.7,16.3-5,25.7-6.9c9.3-1.9,18.5-2.8,27.7-2.8c15.6,0,28.1,3.3,37.6,9.9
		c9.5,6.6,15.1,17.9,16.8,33.8l18.8,161.6h2l49.3-106.7l-13.7-92.5c10.5-2,20.4-3.7,29.7-5.1c9.3-1.4,17.4-2,24.1-2
		c17.3,0,29.5,3.6,36.6,10.7c7.1,7.1,11,17.3,11.7,30.5l10.7,165.1h2.5l60-160.6c5.1-13.5,13.3-24.4,24.6-32.5
		c11.3-8.1,25.5-12.2,42.4-12.2c11.9,0,21.7,0.8,29.5,2.3c7.8,1.5,14.9,3.5,21.3,5.8L915.7,474.2h-79.8l-19.8-133.1h-2l-64.5,133.1
		h-75.2L617.9,138.8z"/>
	<path class="st3" d="M1101.2,115.5c5.8-1.4,11.6-2.4,17.5-3c5.9-0.7,13.1-1,21.6-1c10.5,0,19.2,1.2,26.2,3.6
		c6.9,2.4,12.3,5.6,16,9.7c3.7,4.1,6.4,8.6,7.9,13.7c1.5,5.1,2.3,10.3,2.3,15.8c0,1.7-0.1,3.3-0.3,4.8c-0.2,1.5-0.4,3.1-0.8,4.8
		l-14.2,85.9c6.4-7.1,14.7-13.9,24.9-20.3c10.2-6.4,23.5-9.7,40.1-9.7c10.8,0,20.2,1.8,27.9,5.3c7.8,3.6,14.1,8.5,19.1,14.7
		c4.9,6.3,8.6,13.5,10.9,21.6c2.4,8.1,3.6,16.8,3.6,25.9c0,7.5-0.5,14.6-1.5,21.3c-1,6.8-2.2,13.7-3.6,20.8l-13.7,81.8
		c-0.7,4.7-1.4,9.5-2,14.2c-0.7,4.7-1,9.5-1,14.2c0,4.7,0.2,9.3,0.5,13.7c0.3,4.4,1.2,8.8,2.5,13.2c-5.8,2.7-12.9,5.2-21.3,7.4
		c-8.5,2.2-18.1,3.3-29,3.3c-19.3,0-32.9-3.5-40.7-10.4c-7.8-6.9-11.5-17.5-11.2-31.8c0-1.7,0-3.6,0-5.6c0-2,0.2-3.9,0.5-5.6
		l17.3-101.6c0.3-1.7,0.6-3.6,0.8-5.6c0.2-2,0.3-3.9,0.3-5.6c0-4.1-0.9-7.3-2.8-9.7c-1.9-2.4-5.5-3.6-10.9-3.6
		c-7.8,0-13.3,2.5-16.5,7.4c-3.2,4.9-5.3,10.3-6.4,16l-25.4,150.4h-99.1L1101.2,115.5z"/>
	<path class="st3" d="M1559,409.7c-0.7,5.1-1.3,10.3-1.8,15.5c-0.5,5.3-0.8,10.4-0.8,15.5c0,12.2,1,22,3,29.5
		c-5.8,1.7-12.3,3.2-19.6,4.6c-7.3,1.3-15.2,2-23.6,2c-14.2,0-25.2-1.7-32.8-5.1c-7.6-3.4-13.8-10.8-18.5-22.4
		c-9.8,11.2-19.7,18.9-29.7,23.1c-10,4.2-22.4,6.4-37.3,6.4c-10.2,0-19.7-2-28.5-6.1c-8.8-4.1-16.5-10-23.1-17.8
		c-6.6-7.8-11.8-17.6-15.5-29.5c-3.7-11.9-5.6-25.6-5.6-41.2c0-21.7,3.4-42.4,10.2-62.2c6.8-19.8,16.8-37.3,30-52.3
		c13.2-15.1,29.5-27.1,48.8-36.1c19.3-9,41.5-13.5,66.6-13.5c17.6,0,34.7,1.8,51.3,5.3c16.6,3.6,34.6,11.3,53.9,23.1L1559,409.7z
		 M1480.3,301.9c-3.7-2.4-8.3-3.5-13.7-3.5c-7.5,0-14,2.6-19.6,7.8c-5.6,5.2-10.2,11.6-13.7,19.2c-3.6,7.6-6.3,15.9-8.1,25
		c-1.9,9.1-2.8,17.4-2.8,24.8c0,10.4,1.9,18,5.6,22.8c3.7,4.7,8.8,7.1,15.2,7.1c7.8,0,13.4-2.4,16.8-7.3c3.4-4.9,5.6-10.2,6.6-15.9
		L1480.3,301.9z"/>
	<path class="st3" d="M1640.3,151.5c5.8-1.3,11.8-2.4,18-3c6.3-0.7,13.6-1,22.1-1c10.5,0,19.1,1.2,25.9,3.6c6.8,2.4,12.1,5.6,16,9.7
		c3.9,4.1,6.5,8.6,7.9,13.7c1.3,5.1,2,10.3,2,15.8c0,1.7-0.1,3.3-0.3,4.8c-0.2,1.5-0.4,3.1-0.8,4.8l-5.1,30h72.2l-12.2,75.7h-72.7
		l-11.2,67.6c-1.4,7.8-0.4,13.5,2.8,17c3.2,3.6,7.7,5.3,13.5,5.3c6.1,0,11.5-1.9,16.3-5.8c4.7-3.9,9-8.9,12.7-15
		c14.6,4.1,25.2,9.9,32,17.5c6.8,7.6,9.5,18,8.1,31.3c-1,7.5-3.1,13.6-6.4,18.3c-3.2,4.7-7.2,9.5-11.9,14.2
		c-17.3,15.6-40.7,23.4-70.1,23.4c-13.9,0-26.8-1.5-38.6-4.6c-11.9-3-22.2-8-31-15c-8.8-6.9-15.7-15.8-20.6-26.7
		c-4.9-10.8-7.4-24.2-7.4-40.1c0-4.7,0.3-9.4,0.8-14c0.5-4.6,1.1-9.6,1.8-15L1640.3,151.5z"/>
	<path class="st3" d="M1837.5,369c8.5,12.5,16.8,21.2,25.2,25.9c8.3,4.7,16.5,7.1,24.6,7.1c3.4,0,6.5-0.7,9.4-2
		c2.9-1.3,4.3-4.1,4.3-8.1c0-6.1-3-11.3-8.9-15.5c-5.9-4.2-14.3-10.1-25.2-17.5c-12.2-8.5-22.2-17.1-30-25.9
		c-7.8-8.8-11.7-20.3-11.7-34.6c0-8.1,1.7-16.8,5.1-25.9c3.4-9.1,9.2-17.6,17.5-25.4c8.3-7.8,19.2-14.3,32.8-19.6
		c13.5-5.2,30.5-7.9,50.8-7.9c11.9,0,23.5,1.4,34.8,4.1c11.3,2.7,21.3,6.6,30,11.7c8.6,5.1,15.6,11.2,20.8,18.3
		c5.2,7.1,7.9,14.9,7.9,23.4c0,11.5-4.8,21.6-14.5,30.2c-9.7,8.6-21.3,13.6-34.8,15c-4.4-11.2-10-19.2-16.8-24.1
		c-6.8-4.9-14.1-7.4-21.8-7.4c-3,0-5.8,0.9-8.1,2.8c-2.4,1.9-3.6,4.5-3.6,7.9c0,2.4,0.8,4.5,2.3,6.4c1.5,1.9,4.1,4.1,7.6,6.6
		c3.6,2.5,8,5.5,13.5,8.9c5.4,3.4,12,7.8,19.8,13.2c8.1,5.8,14.6,11.3,19.6,16.5c4.9,5.3,8.8,10.6,11.7,16
		c2.9,5.4,4.8,10.9,5.8,16.5c1,5.6,1.5,11.4,1.5,17.5c0,8.8-2,17.7-5.8,26.7c-3.9,9-10,17.2-18.3,24.6c-8.3,7.5-18.9,13.5-31.8,18
		c-12.9,4.6-28.1,6.9-45.7,6.9c-13.6,0-26.6-1.1-39.1-3.3c-12.5-2.2-23.7-5.8-33.5-10.9c-10.8-5.8-18.9-12.1-24.1-19.1
		c-5.3-6.9-7.9-15.3-7.9-25.2c0-11.9,3.1-21.8,9.4-30C1816.6,382.7,1825.6,375.5,1837.5,369z"/>
	<path class="st3" d="M2269.9,409.7c-0.7,5.1-1.3,10.3-1.8,15.5c-0.5,5.3-0.8,10.4-0.8,15.5c0,12.2,1,22,3,29.5
		c-5.8,1.7-12.3,3.2-19.6,4.6c-7.3,1.3-15.2,2-23.6,2c-14.2,0-25.2-1.7-32.8-5.1c-7.6-3.4-13.8-10.8-18.5-22.4
		c-9.8,11.2-19.7,18.9-29.7,23.1c-10,4.2-22.4,6.4-37.3,6.4c-10.2,0-19.7-2-28.5-6.1c-8.8-4.1-16.5-10-23.1-17.8
		c-6.6-7.8-11.8-17.6-15.5-29.5c-3.7-11.9-5.6-25.6-5.6-41.2c0-21.7,3.4-42.4,10.2-62.2c6.8-19.8,16.8-37.3,30-52.3
		c13.2-15.1,29.5-27.1,48.8-36.1c19.3-9,41.5-13.5,66.6-13.5c17.6,0,34.7,1.8,51.3,5.3c16.6,3.6,34.6,11.3,53.9,23.1L2269.9,409.7z
		 M2191.2,301.9c-3.7-2.4-8.3-3.5-13.7-3.5c-7.5,0-14,2.6-19.6,7.8c-5.6,5.2-10.2,11.6-13.7,19.2c-3.6,7.6-6.3,15.9-8.1,25
		c-1.9,9.1-2.8,17.4-2.8,24.8c0,10.4,1.9,18,5.6,22.8c3.7,4.7,8.8,7.1,15.2,7.1c7.8,0,13.4-2.4,16.8-7.3c3.4-4.9,5.6-10.2,6.6-15.9
		L2191.2,301.9z"/>
	<path class="st3" d="M2340.5,228.8c5.8-1,11.6-1.9,17.5-2.8c5.9-0.8,13.1-1.3,21.6-1.3c30.1,0,47.3,8.1,51.3,24.4
		c6.8-7.8,15-14.6,24.6-20.6c9.7-5.9,22.6-8.9,38.9-8.9c10.8,0,20.8,2.3,30,6.9s17,11,23.6,19.3c6.6,8.3,11.8,18.3,15.5,30
		c3.7,11.7,5.6,24.8,5.6,39.4c0,20-2.3,39.7-6.9,59.2c-4.6,19.5-11.5,36.9-20.8,52.3c-9.3,15.4-21.3,27.9-35.8,37.3
		c-14.6,9.5-32,14.2-52.3,14.2c-12.9,0-23.5-2-31.8-5.8c-8.3-3.9-15.3-9.1-21.1-15.5l-21.3,125.5h-98.6L2340.5,228.8z M2409.7,398.5
		c4.4,2.4,9.5,3.6,15.2,3.6c8.5,0,15.5-3,21.1-8.9c5.6-5.9,10-13,13.2-21.3c3.2-8.3,5.5-16.9,6.9-25.9c1.3-9,2-16.3,2-22.1
		c0-21.3-6.6-32-19.8-32c-7.8,0-13.6,2.5-17.3,7.6c-3.7,5.1-6.1,10.5-7.1,16.3L2409.7,398.5z"/>
	<path class="st3" d="M2618.5,228.8c5.8-1,11.6-1.9,17.5-2.8c5.9-0.8,13.1-1.3,21.6-1.3c30.1,0,47.3,8.1,51.3,24.4
		c6.8-7.8,15-14.6,24.6-20.6c9.7-5.9,22.6-8.9,38.9-8.9c10.8,0,20.8,2.3,30,6.9s17,11,23.6,19.3c6.6,8.3,11.8,18.3,15.5,30
		c3.7,11.7,5.6,24.8,5.6,39.4c0,20-2.3,39.7-6.9,59.2c-4.6,19.5-11.5,36.9-20.8,52.3c-9.3,15.4-21.3,27.9-35.8,37.3
		c-14.6,9.5-32,14.2-52.3,14.2c-12.9,0-23.5-2-31.8-5.8c-8.3-3.9-15.3-9.1-21.1-15.5l-21.3,125.5h-98.6L2618.5,228.8z M2687.6,398.5
		c4.4,2.4,9.5,3.6,15.2,3.6c8.5,0,15.5-3,21.1-8.9c5.6-5.9,10-13,13.2-21.3c3.2-8.3,5.5-16.9,6.9-25.9c1.3-9,2-16.3,2-22.1
		c0-21.3-6.6-32-19.8-32c-7.8,0-13.6,2.5-17.3,7.6c-3.7,5.1-6.1,10.5-7.1,16.3L2687.6,398.5z"/>
</g>
</svg>
