<?xml version="1.0" encoding="UTF-8" standalone="no"?>
<svg width="129px" height="48px" viewBox="0 0 129 48" version="1.1" xmlns="http://www.w3.org/2000/svg" xmlns:xlink="http://www.w3.org/1999/xlink">
    <!-- Generator: Sketch 43.1 (39012) - http://www.bohemiancoding.com/sketch -->
    <title>id/logo-acessibilidade</title>
    <desc>Created with Sketch.</desc>
    <defs></defs>
    <g id="UI" stroke="none" stroke-width="1" fill="none" fill-rule="evenodd">
        <g id="Mobile-Portrait" transform="translate(-631.000000, -666.000000)">
            <g id="id/logo-acessibilidade" transform="translate(631.000000, 666.000000)">
                <path d="M45.4736842,0.131378227 L45.4736842,0 L21.4736842,0 L21.4736842,0.131378227 C9.40632069,1.39376967 0,11.5984029 0,24 C0,36.4015971 9.40632069,46.6062303 21.4736842,47.8686218 L21.4736842,48 L45.4736842,48 L45.4736842,47.8686218 C57.5410477,46.6062303 66.9473684,36.4015971 66.9473684,24 C66.9473684,11.5984029 57.5410477,1.39376967 45.4736842,0.131378227 Z" id="Combined-Shape" fill="#00BFDF" fill-rule="evenodd"></path>
                <path d="M107.368421,0.131378227 L107.368421,0 L83.3684211,0 L83.3684211,0.131378227 C71.3010575,1.39376967 61.8947368,11.5984029 61.8947368,24 C61.8947368,36.4015971 71.3010575,46.6062303 83.3684211,47.8686218 L83.3684211,48 L107.368421,48 L107.368421,47.8686218 C119.435785,46.6062303 128.842105,36.4015971 128.842105,24 C128.842105,11.5984029 119.435785,1.39376967 107.368421,0.131378227 Z" id="Combined-Shape" fill="#00BFDF" fill-rule="evenodd"></path>
                <ellipse id="Oval-3" fill="#FFFFFF" fill-rule="evenodd" cx="65.6842105" cy="22.7368421" rx="13.8947368" ry="13.8947368"></ellipse>
                <path d="M62.7789474,13.8947368 L70.7368421,22.7368421 L62.7789474,31.5789474 L62.7789474,13.8947368 Z M61.8947368,13.8947368 L62.7789474,13.8947368 L62.7789474,31.5789474 L61.8947368,31.5789474 L61.8947368,13.8947368 Z" id="Combined-Shape" fill="#00BFDF" fill-rule="evenodd"></path>
                <g id="ic_accessible_48px" stroke-width="1" fill-rule="evenodd" transform="translate(10.105263, 3.789474)">
                    <g id="Group">
                        <polygon id="Shape" points="0 0 40.4210526 0 40.4210526 40.4210526 0 40.4210526"></polygon>
                        <circle id="Oval" fill="#F4F4F4" cx="20.2105263" cy="6.73684211" r="3.36842105"></circle>
                        <path d="M32,21.8947368 L32,18.5263158 C29.4147368,18.56 26.7957895,17.2631579 25.1452632,15.4357895 L22.9642105,13.0273684 C22.6694737,12.7073684 22.3157895,12.4547368 21.9368421,12.2610526 C21.92,12.2526316 21.9115789,12.2442105 21.9031579,12.2357895 L21.8863158,12.2357895 C21.3052632,11.8989474 20.6147368,11.7305263 19.8821053,11.8063158 C18.1305263,11.9747368 16.8421053,13.5494737 16.8421053,15.3094737 L16.8421053,25.2631579 C16.8421053,27.1242105 18.3494737,28.6315789 20.2105263,28.6315789 L28.6315789,28.6315789 L28.6315789,37.0526316 L32,37.0526316 L32,27.7894737 C32,25.9284211 30.4926316,24.4210526 28.6315789,24.4210526 L23.5789474,24.4210526 L23.5789474,18.6105263 C25.7515789,20.4042105 29.0442105,21.8863158 32,21.8947368 Z M21.6,30.3157895 C20.9094737,32.2778947 19.04,33.6842105 16.8421053,33.6842105 C14.0547368,33.6842105 11.7894737,31.4189474 11.7894737,28.6315789 C11.7894737,26.4336842 13.1957895,24.5642105 15.1578947,23.8736842 L15.1578947,20.3789474 C11.3178947,21.1621053 8.42105263,24.5557895 8.42105263,28.6315789 C8.42105263,33.28 12.1936842,37.0526316 16.8421053,37.0526316 C20.9178947,37.0526316 24.3115789,34.1557895 25.0947368,30.3157895 L21.6,30.3157895 Z" id="Shape" fill="#F4F4F4"></path>
                    </g>
                </g>
                <path d="M104,5.47368421 L90.5263158,5.47368421 C87.7389474,5.47368421 85.4736842,7.73894737 85.4736842,10.5263158 L85.4736842,37.4736842 C85.4736842,40.2610526 87.7389474,42.5263158 90.5263158,42.5263158 L104,42.5263158 C106.787368,42.5263158 109.052632,40.2610526 109.052632,37.4736842 L109.052632,10.5263158 C109.052632,7.73894737 106.787368,5.47368421 104,5.47368421 Z M100.631579,39.1578947 L93.8947368,39.1578947 L93.8947368,37.4736842 L100.631579,37.4736842 L100.631579,39.1578947 Z M106.105263,34.1052632 L88.4210526,34.1052632 L88.4210526,10.5263158 L106.105263,10.5263158 L106.105263,34.1052632 Z" id="Shape" fill="#F4F4F4" fill-rule="evenodd"></path>
                <polygon id="Shape" points="77.0526316 3.78947368 117.473684 3.78947368 117.473684 44.2105263 77.0526316 44.2105263"></polygon>
            </g>
        </g>
    </g>
</svg>