<?xml version="1.0" encoding="UTF-8" standalone="no"?>
<svg width="712px" height="150px" viewBox="0 0 712 150" version="1.1" xmlns="http://www.w3.org/2000/svg" xmlns:xlink="http://www.w3.org/1999/xlink">
    <!-- Generator: Sketch 43.1 (39012) - http://www.bohemiancoding.com/sketch -->
    <title>iPad Pro Landscape</title>
    <desc>Created with Sketch.</desc>
    <defs></defs>
    <g id="Symbols" stroke="none" stroke-width="1" fill="none" fill-rule="evenodd">
        <g id="iPad-Pro-Landscape" fill="#003583">
            <path d="M113.596859,48.0724568 C112.152162,53.1294878 104.466371,68.4963518 81.740395,68.4963518 L61.3495217,68.4963518 L72.2195437,28.3715003 L93.660034,28.3715003 C114.381124,28.3715003 115.041557,43.0166052 113.596859,48.0724568 L113.596859,48.0724568 Z M102.561729,0.0672226593 L37.1080873,0.0672226593 L0,136.977372 L21.3579361,136.977372 C34.0417906,136.977372 43.3904576,135.473707 46.6666777,123.259232 L52.7367659,100.099257 L73.4342689,100.099257 C145.790617,100.099257 151.164891,58.3563444 153.415081,50.1540006 C154.909311,44.687737 160.346091,0.0672226593 102.561729,0.0672226593 L102.561729,0.0672226593 Z M521.553489,1.34091515 C513.132966,1.34091515 505.139366,5.03580272 499.702586,11.4420042 L450.67486,69.1591436 L433.564924,1.34091515 L390.61908,1.34091515 L430.563492,149.912427 L561.612297,1.34091515 L521.553489,1.34091515 Z M678.49717,0 C673.8706,0 669.490513,3.52270322 668.240407,8.01954532 L668.187337,8.0372355 L637.412332,120.263696 C637.397,120.322663 637.394642,120.375734 637.37931,120.434701 L632.821142,136.977372 L674.414278,136.977372 L712,0 L678.49717,0 Z M602.36456,68.2840697 C601.542557,71.8185664 598.472722,75.0476127 594.56909,76.877956 C583.044532,82.2734589 569.930217,79.216597 566.825001,78.6151311 C564.959278,78.2459961 560.179393,77.0843414 557.806551,76.4062181 C557.806551,76.4062181 564.159682,56.0424697 587.702944,56.0424697 C592.04883,56.0424697 604.552245,58.833979 602.36456,68.2840697 L602.36456,68.2840697 Z M629.687623,43.4553215 C620.80008,34.973473 606.291779,31.7302745 591.901412,31.7302745 C579.683399,31.7302745 567.473641,33.7233674 560.695946,36.3202849 C503.682875,58.1947741 509.060688,106.648159 526.096325,122.913684 C534.758614,131.186789 543.762912,137.73805 562.638327,139.186285 C587.923482,141.120411 602.568587,137.334714 611.704972,133.778989 C612.249829,132.399155 615.805554,118.547749 618.058103,111.277088 C612.153123,114.361075 575.284442,123.963301 559.601514,112.981241 C554.056234,109.097659 552.69645,102.762218 554.309793,97.8585018 C557.313585,98.6698911 561.881188,100.111051 565.18925,100.662984 C569.611793,101.382384 574.877568,101.747981 580.847412,101.747981 C587.766629,101.747981 594.53371,101.08401 600.976471,99.7749373 C606.621995,98.6132825 612.197938,96.5966028 618.023902,93.598708 C623.10334,90.9864591 628.056589,87.0120668 631.266765,82.9751692 C635.323712,77.862709 637.697733,72.6912816 638.515019,67.1695888 C639.758049,58.7844466 636.465318,49.9122349 629.687623,43.4553215 L629.687623,43.4553215 Z M191.993812,115.434279 C187.642029,115.434279 175.138614,112.645128 177.322761,103.195037 C178.148303,99.6570028 181.218137,96.4291358 185.121769,94.5976132 C196.649865,89.208007 209.760643,92.2625102 212.868216,92.8639761 C214.731581,93.2331111 216.981772,94.0079407 219.352255,94.686064 C219.352255,94.686064 215.531177,115.434279 191.993812,115.434279 L191.993812,115.434279 Z M217.087913,31.7621169 C204.577422,31.5321446 185.37179,34.4486645 177.711945,36.5561539 C177.520891,37.1340329 171.29395,58.8316204 171.29395,58.8316204 C171.29395,58.8316204 210.002408,49.2789267 222.094232,58.8575659 C227.385952,63.0536751 225.620473,67.9656466 224.010667,72.8717214 C221.003338,72.0579734 217.81321,71.3680566 214.501609,70.8196613 C210.079066,70.0967228 204.813291,69.7311259 198.843447,69.7311259 C191.926589,69.7311259 185.151253,70.3950971 178.714388,71.7041699 C173.071223,72.8599279 167.490563,74.8825045 161.666958,77.8803992 C156.589878,80.4926481 151.634271,84.4705785 148.422914,88.5062967 C144.365968,93.6128602 141.999023,98.7842875 141.17584,104.315415 C139.929272,112.700557 143.2279,121.563334 150.003237,128.026144 C158.893138,136.509172 173.399081,139.752371 187.789447,139.752371 C200.00746,139.752371 210.662842,137.419626 217.583237,135.040888 C235.146042,128.996745 244.86974,136.977372 244.86974,136.977372 L260.523185,76.6986956 C264.244018,63.0383436 262.648365,52.0857675 255.794012,44.1546731 C248.944377,36.2471655 235.892567,32.1135616 217.087913,31.7621169 L217.087913,31.7621169 Z M385.243626,49.3579428 C381.732716,44.8210029 370.947607,31.7326332 345.697833,31.7326332 C331.356999,31.7326332 323.205367,34.3012464 313.894439,36.9335442 C299.883821,40.8996811 290.307541,34.5135285 290.307541,34.5135285 L263.603634,136.977372 L302.967808,136.977372 C302.967808,136.977372 315.120957,88.9874695 316.874643,82.4008282 C318.472656,76.3885279 321.719392,63.5607934 338.690165,63.5607934 C347.313535,63.5607934 355.241092,67.1990724 351.603992,81.0150979 C350.72538,84.3432092 336.758398,136.977372 336.758398,136.977372 L375.810046,136.977372 L389.749903,84.3432092 C391.586143,77.5832043 392.181712,71.16403 391.515382,65.2673055 C390.827824,59.2113694 388.720335,53.8606816 385.243626,49.3579428 L385.243626,49.3579428 Z" id="Fill-1"></path>
        </g>
    </g>
</svg>