<svg xmlns="http://www.w3.org/2000/svg" width="82.616" height="86.652" viewBox="0 0 82.616 86.652"><defs><style>.a{fill:#fff;}.b{fill:none;stroke:#fff;stroke-linecap:round;stroke-linejoin:round;stroke-width:1.5px;}</style></defs><g transform="translate(-63.566 -51.724)"><path class="a" d="M127.989,70.038a20.437,20.437,0,0,0-4.476.494l3.393-12.61h-8.453a6.274,6.274,0,0,0-6.05,4.616l-2.616,9.452a26.238,26.238,0,0,0,3.687-.344,20.292,20.292,0,0,1-10.822,3.11,20.7,20.7,0,0,1-2.514-.159,20.309,20.309,0,0,1-5.84-1.455L90.645,86.349a20.467,20.467,0,0,0,14.687,1.827l-3.448,12.844h8.579a6.125,6.125,0,0,0,5.91-4.515l2.486-9.111a20.249,20.249,0,0,0-5.7,1.469,20.383,20.383,0,0,1,6.269-3.565v0c.084-.029.165-.054.247-.081.149-.051.3-.1.452-.149.12-.038.242-.073.365-.108.156-.046.31-.09.467-.132.124-.033.248-.063.373-.093.158-.039.312-.078.472-.112.129-.029.26-.054.391-.08.156-.031.31-.063.465-.09.14-.025.284-.046.424-.067s.3-.047.444-.068.316-.035.475-.052c.136-.014.271-.033.407-.043.187-.017.376-.027.563-.039.11-.007.221-.016.332-.021.3-.013.6-.02.906-.02h.02c.35,0,.7.009,1.048.027.107.005.213.017.32.025.247.017.493.033.737.059.119.012.237.03.356.044.23.027.461.055.686.09.12.018.235.043.352.063.227.039.454.078.678.125.112.024.222.052.335.078.226.051.451.1.675.161.108.029.214.061.322.092.225.063.447.127.668.2.106.034.207.071.31.106.221.075.441.149.658.23.1.039.2.081.306.12.213.085.429.17.638.261.029.013.06.024.089.037L138.05,72.69a20.3,20.3,0,0,0-10.061-2.652" transform="translate(8.132 1.677)"/><path class="b" d="M105.207,137.627c-1.01,0-2.077-.05-3.2-.156-17-1.582-27.879-23.942-31.768-33.482-6.865-16.852-7.857-28.573-3.218-38.006,5.145-10.46,17.133-13.214,17.252-13.24a5.134,5.134,0,0,1,4.928.824c3.7,2.844,5.238,10.609,5.1,16.618C94.19,75.247,92,76.156,88.358,77.66a30.993,30.993,0,0,0-6.1,3.132c-1.684,1.15-2.61,3.213-2.754,6.131-.4,8.006,5.553,21.508,11.791,26.754,5.337,4.485,8.351,2.255,11.268.092,1.593-1.183,3.235-2.4,5.332-2.639,3.268-.363,7.027,3.733,8.978,6.209a35.526,35.526,0,0,1,5.575,9.6c.34,1.193-.328,3.035-1.7,4.693C119.5,133.13,114.941,137.627,105.207,137.627Z" transform="translate(0 0)"/></g></svg>