<svg xmlns="http://www.w3.org/2000/svg" width="68.489" height="100.692" viewBox="0 0 68.489 100.692"><defs><style>.a{fill:#fff;}.b{fill:none;stroke:#fff;stroke-linecap:round;stroke-linejoin:round;stroke-width:1.5px;}</style></defs><g transform="translate(-88.26 -214.711)"><path class="a" d="M138.125,227.567a9.392,9.392,0,0,0-2.051.226l1.555-5.78h-3.875a2.875,2.875,0,0,0-2.772,2.116l-1.2,4.333a12.053,12.053,0,0,0,1.69-.159,9.894,9.894,0,0,1-8.789.686l-1.676,6.052a9.378,9.378,0,0,0,6.732.838l-1.581,5.887h3.932a2.81,2.81,0,0,0,2.71-2.069l1.138-4.176a9.318,9.318,0,0,0-2.613.674,9.34,9.34,0,0,1,2.874-1.634v0l.112-.037.208-.068.167-.049c.071-.022.143-.042.214-.061l.171-.042c.073-.018.144-.036.216-.052s.12-.025.179-.037.141-.03.213-.042l.194-.031.2-.031c.073-.01.145-.016.218-.023l.187-.021c.085-.007.172-.012.257-.017l.152-.01c.138-.006.275-.009.414-.009h.01c.161,0,.321,0,.481.012.049,0,.1.007.146.011.113.007.226.016.338.027l.163.021c.106.012.21.025.315.042.054.007.107.018.161.028.1.018.208.036.31.058l.155.036c.1.023.207.047.309.074l.148.042c.1.028.2.058.306.09.048.015.095.033.143.048.1.034.2.069.3.106.048.018.093.038.14.055.1.038.2.079.293.121l.042.016,1.67-6.033a9.29,9.29,0,0,0-4.612-1.216" transform="translate(7.342 1.503)"/><path class="b" d="M149.749,265.057H116.254v-49.6h24.274a9.221,9.221,0,0,1,9.221,9.221Z" transform="translate(6.251)"/><path class="b" d="M122.5,265.057H89.01V224.682a9.221,9.221,0,0,1,9.221-9.221H122.5Z"/><line class="b" x1="12.784" transform="translate(99.366 228.024)"/><line class="b" x1="12.784" transform="translate(99.366 234.673)"/><path class="b" d="M122.5,305.4H98.231a9.22,9.22,0,0,1-9.221-9.221V255.8H122.5Z" transform="translate(0 9.256)"/><line class="b" x1="12.784" transform="translate(99.366 277.62)"/><line class="b" x1="12.784" transform="translate(99.366 284.269)"/><path class="b" d="M140.528,305.4H116.254V255.8h33.495v40.375A9.22,9.22,0,0,1,140.528,305.4Z" transform="translate(6.251 9.256)"/><line class="b" x1="12.784" transform="translate(132.86 277.62)"/><line class="b" x1="12.784" transform="translate(132.86 284.269)"/></g></svg>