<svg xmlns="http://www.w3.org/2000/svg" width="96.454" height="93.256" viewBox="0 0 96.454 93.256"><defs><style>.a{fill:none;stroke:#fff;stroke-linecap:round;stroke-linejoin:round;stroke-width:1.5px;}.b{fill:#fff;}</style></defs><g transform="translate(-1191.25 -3063.25)"><g transform="translate(1192 3064)"><path class="a" d="M1229.967,64.631H1219.9c-.516-10.043-8.229-17.789-18.348-17.789s-19.092,7.746-21.247,17.789h-10.069L1148.286,138.6h81.666Zm-39.782,0c1.523-5.437,5.962-9.623,10.7-9.623s8.494,4.186,9.131,9.623Z" transform="translate(-1135.014 -46.842)"/><path class="b" d="M1205.055,88.1a19.319,19.319,0,0,0-4.222.466l3.2-11.893h-7.974a5.914,5.914,0,0,0-5.705,4.353l-2.468,8.916a24.7,24.7,0,0,0,3.478-.324,20.363,20.363,0,0,1-18.087,1.41l-3.45,12.458a19.3,19.3,0,0,0,13.854,1.724l-3.253,12.114h8.092a5.779,5.779,0,0,0,5.575-4.259l2.342-8.592a19.107,19.107,0,0,0-5.375,1.386,19.215,19.215,0,0,1,5.914-3.363v0c.077-.026.155-.05.232-.076.142-.048.283-.1.426-.141.114-.036.229-.068.345-.1.146-.043.293-.086.441-.125.117-.031.234-.059.351-.088.148-.036.3-.073.445-.107.121-.026.245-.049.369-.074.145-.029.291-.059.438-.085.132-.023.267-.042.4-.062s.279-.046.419-.064.3-.034.448-.05c.128-.013.255-.03.383-.041.177-.016.354-.025.532-.036.1-.006.207-.016.311-.019q.425-.02.854-.019h.019c.332,0,.662.01.99.026.1,0,.2.016.3.023.233.016.465.031.7.055.113.011.223.029.336.042.216.026.434.052.647.085.112.018.221.04.331.059.214.037.427.074.639.119.106.023.211.049.317.073.213.048.425.1.634.153.1.026.2.058.305.085.211.06.422.12.629.186.1.031.195.066.293.1.208.071.414.142.62.219.1.036.191.076.287.113.2.079.4.161.6.246l.085.035,3.438-12.417A19.151,19.151,0,0,0,1205.055,88.1Z" transform="translate(-1130.682 -40.844)"/><line class="a" x2="25.449" transform="translate(0 29.321)"/><line class="a" x2="15.479" transform="translate(8.003 36.099)"/><line class="a" x2="7.083" transform="translate(14.431 42.877)"/></g></g></svg>