<svg xmlns="http://www.w3.org/2000/svg" width="98.379" height="104.366" viewBox="0 0 98.379 104.366"><defs><style>.a{fill:none;stroke:#fff;stroke-linecap:round;stroke-linejoin:round;stroke-width:1.5px;}.b{fill:#fff;}</style></defs><g transform="translate(-1237.25 -7474.25)"><g transform="translate(1238 7475)"><path class="a" d="M83.553,482.18h45.879l-6.173-75.955h-10.34a20.446,20.446,0,0,0-40.659,0H61.922L60.407,424.86m22-18.635c1.109-5.585,5.317-9.883,10.181-9.883s9.073,4.3,10.181,9.883Z" transform="translate(-32.554 -387.957)"/><path class="a" d="M85.195,430.574H77.94a14.347,14.347,0,0,0-28.53,0H42.156l-4.332,53.3h51.7Zm-28.664,0c.778-3.918,3.731-6.934,7.145-6.934s6.367,3.016,7.144,6.934Z" transform="translate(-37.824 -381.003)"/><path class="b" d="M69.514,446.492a12.166,12.166,0,0,0-2.649.292l2.009-7.463h-5a3.713,3.713,0,0,0-3.58,2.731l-1.549,5.6a15.558,15.558,0,0,0,2.183-.2,12.01,12.01,0,0,1-6.406,1.841,12.351,12.351,0,0,1-1.489-.095,11.966,11.966,0,0,1-3.456-.862l-2.166,7.818a12.1,12.1,0,0,0,8.7,1.082l-2.041,7.6h5.078a3.625,3.625,0,0,0,3.5-2.673l1.47-5.393a12.036,12.036,0,0,0-3.373.87,12.11,12.11,0,0,1,3.712-2.11v0l.146-.047c.089-.03.178-.06.268-.089l.216-.064c.092-.026.184-.053.276-.078.074-.02.148-.037.221-.054.092-.023.186-.047.28-.068.076-.017.154-.031.231-.047s.184-.037.275-.053.168-.026.252-.039.175-.028.263-.039.187-.022.281-.032.16-.018.241-.025c.111-.011.222-.017.334-.023.064,0,.13-.01.195-.012.178-.009.356-.011.536-.011h.011q.313,0,.622.015c.064,0,.127.011.19.015.146.01.291.02.437.035.07.007.139.018.21.027.137.016.273.032.407.054l.208.036c.133.025.268.047.4.075.067.014.132.031.2.046.133.03.266.06.4.095.064.017.128.037.191.055.132.036.265.074.395.116l.185.062c.13.043.259.089.387.137.062.022.121.048.181.07.126.051.253.1.377.155.017.007.036.014.053.022l2.158-7.794a12.023,12.023,0,0,0-5.957-1.57" transform="translate(-35.588 -375.971)"/><path class="b" d="M100.37,428.91a17.225,17.225,0,0,0-3.775.417l2.863-10.638h-7.13a5.291,5.291,0,0,0-5.1,3.892l-2.208,7.974a22.07,22.07,0,0,0,3.112-.289A17.124,17.124,0,0,1,79,432.89a17.452,17.452,0,0,1-2.121-.134c-.168-.017-.326-.064-.492-.085l.979,12.041a17.228,17.228,0,0,0,3.894-.5l-2.909,10.835h7.237a5.168,5.168,0,0,0,4.986-3.809l2.1-7.685a17.127,17.127,0,0,0-4.809,1.238,17.248,17.248,0,0,1,5.291-3.007v0c.068-.023.138-.044.206-.068.128-.043.254-.085.382-.126.1-.032.2-.062.308-.091.131-.038.261-.076.393-.111.1-.028.21-.053.314-.079.132-.032.264-.065.4-.095.109-.023.22-.044.329-.068.131-.025.261-.053.392-.075s.238-.037.358-.057.249-.039.375-.057.268-.03.4-.044c.115-.012.227-.026.343-.037.158-.014.317-.022.475-.032l.279-.017c.254-.011.508-.017.765-.017h.016c.3,0,.592.009.886.025.09,0,.18.014.27.02.208.014.416.028.622.048.1.011.2.027.3.038.195.025.389.048.581.076.1.016.2.036.3.053.191.033.382.067.571.106.095.02.189.044.284.067.19.042.38.086.567.136.091.023.183.051.273.076.189.053.377.106.562.165l.263.09c.186.062.371.126.555.195.085.032.17.067.257.1.18.07.36.143.538.22l.076.032,3.075-11.106a17.131,17.131,0,0,0-8.489-2.237" transform="translate(-28.826 -380.786)"/></g></g></svg>