<svg xmlns="http://www.w3.org/2000/svg" width="85.781" height="101.035" viewBox="0 0 85.781 101.035"><defs><style>.a{fill:#fff;}.b{fill:none;stroke:#fff;stroke-linecap:round;stroke-linejoin:round;stroke-width:1.5px;}</style></defs><g transform="translate(-1195.25 -5184.25)"><g transform="translate(1196 5185)"><path class="a" d="M805.955,79.413a9.289,9.289,0,0,0-2.039.225l1.546-5.743h-3.849a2.859,2.859,0,0,0-2.756,2.1l-1.192,4.3a12.016,12.016,0,0,0,1.68-.156,9.829,9.829,0,0,1-8.732.68l-1.665,6.014a9.3,9.3,0,0,0,6.689.833l-1.57,5.849h3.907a2.791,2.791,0,0,0,2.692-2.055l1.131-4.149a9.239,9.239,0,0,0-2.6.669,9.275,9.275,0,0,1,2.857-1.622v0l.111-.037c.069-.023.138-.046.207-.068l.167-.05.213-.059c.055-.015.112-.029.169-.043l.215-.051c.059-.013.118-.024.177-.036s.14-.029.213-.042l.193-.03.2-.031c.073-.01.144-.017.216-.024l.184-.02c.086-.007.171-.012.258-.017.05,0,.1-.008.15-.011.137-.006.274-.01.412-.01h.01c.161,0,.32,0,.478.012.049,0,.1.008.146.011.111.008.224.015.335.027l.162.02c.1.013.209.025.313.042.054.008.106.019.159.029.1.018.207.036.309.057.051.011.1.024.153.036.1.023.2.046.306.073.05.013.1.029.148.042.1.029.2.058.3.09.048.014.1.031.142.048.1.033.2.068.3.106.046.017.093.036.138.054.1.039.2.077.292.12a.375.375,0,0,1,.04.017l1.661-6a9.252,9.252,0,0,0-4.583-1.207" transform="translate(-746.316 -37.384)"/><path class="b" d="M819.415,49.859h7.269a10.7,10.7,0,0,1,10.706,10.706v70.2a10.706,10.706,0,0,1-10.706,10.706h-62.87a10.706,10.706,0,0,1-10.706-10.706v-70.2a10.706,10.706,0,0,1,10.706-10.706h7.269" transform="translate(-753.108 -41.939)"/><line class="b" x2="33.028" transform="translate(25.627 7.919)"/><rect class="b" width="57.513" height="55.022" transform="translate(13.385 30.159)"/><rect class="b" width="12.195" height="12.194" transform="translate(23.645 40.418)"/><rect class="b" width="12.195" height="12.195" transform="translate(23.645 62.726)"/><rect class="b" width="12.195" height="12.195" transform="translate(48.444 62.726)"/><path class="b" d="M772.046,58.5h0a3.827,3.827,0,0,1-3.827-3.825v-7.65a3.827,3.827,0,0,1,7.653,0v7.65A3.827,3.827,0,0,1,772.046,58.5Z" transform="translate(-750.244 -43.201)"/><path class="b" d="M806.245,58.5h0a3.827,3.827,0,0,1-3.827-3.825v-7.65a3.826,3.826,0,1,1,7.652,0v7.65A3.826,3.826,0,0,1,806.245,58.5Z" transform="translate(-743.763 -43.201)"/></g></g></svg>