<svg xmlns="http://www.w3.org/2000/svg" width="71.904" height="111.507" viewBox="0 0 71.904 111.507"><defs><style>.a{fill:none;stroke:#fff;stroke-linecap:round;stroke-linejoin:round;stroke-width:1.5px;}.b{fill:#fff;}</style></defs><g transform="translate(-1314.25 -889.25)"><g transform="translate(1315 890)"><rect class="a" width="70.404" height="110.007" rx="9" transform="translate(0 0)"/><rect class="a" width="49.689" height="68.661" transform="translate(10.357 16.995)"/><path class="a" d="M497.782,118.5a4.856,4.856,0,1,1-4.856-4.856A4.854,4.854,0,0,1,497.782,118.5Z" transform="translate(-459.13 -20.607)"/><path class="b" d="M507.574,82.665a14.551,14.551,0,0,0-3.2.353l2.425-9.011H500.76a4.482,4.482,0,0,0-4.323,3.3l-1.87,6.756a18.948,18.948,0,0,0,2.635-.246,14.5,14.5,0,0,1-7.734,2.222,16.909,16.909,0,0,1-5.97-1.154l-2.614,9.439a14.627,14.627,0,0,0,10.5,1.305l-2.465,9.179h6.132a4.38,4.38,0,0,0,4.225-3.226l1.775-6.511a14.464,14.464,0,0,0-4.075,1.05,14.569,14.569,0,0,1,4.483-2.548v0l.176-.057c.107-.037.214-.073.323-.107.087-.027.174-.051.261-.077.111-.033.221-.066.334-.094.089-.024.177-.044.266-.066.113-.029.224-.057.337-.081.093-.02.186-.037.28-.057.111-.021.221-.044.333-.064s.2-.033.3-.047.21-.034.317-.049.227-.026.34-.037c.1-.011.193-.023.29-.031.134-.013.267-.019.4-.027.079-.006.157-.013.236-.016.216-.009.431-.014.647-.014h.014c.253,0,.5.007.751.02.076,0,.151.013.229.017.177.011.353.024.527.041.084.01.169.023.254.033.164.02.329.04.49.064.086.013.167.031.251.044.161.029.324.057.484.09.081.017.16.037.24.056.161.037.323.074.481.116.078.02.154.044.231.066.159.044.32.09.477.14.074.024.147.05.221.076.159.053.314.107.47.164l.219.086c.151.061.306.123.456.187l.064.027,2.6-9.409a14.5,14.5,0,0,0-7.191-1.9" transform="translate(-462.208 -37.582)"/></g></g></svg>