<svg xmlns="http://www.w3.org/2000/svg" width="108.136" height="59.278" viewBox="0 0 108.136 59.278"><defs><style>.a{fill:#fff;}.b{fill:none;stroke:#fff;stroke-linecap:round;stroke-linejoin:round;stroke-width:1.5px;}</style></defs><g transform="translate(-1248 -6553.25)"><g transform="translate(-8.669 6328.448)"><path class="a" d="M1284.765,249.013a15.375,15.375,0,0,0-3.367.372l2.554-9.487h-6.36a4.719,4.719,0,0,0-4.551,3.472l-1.968,7.111a19.772,19.772,0,0,0,2.774-.258,15.265,15.265,0,0,1-8.142,2.339,15.536,15.536,0,0,1-1.892-.12,15.238,15.238,0,0,1-4.393-1.1l-2.751,9.937a15.393,15.393,0,0,0,11.051,1.374l-2.595,9.663h6.454a4.608,4.608,0,0,0,4.447-3.4l1.869-6.854a15.254,15.254,0,0,0-4.288,1.1,15.341,15.341,0,0,1,4.718-2.682v0l.185-.061c.112-.038.226-.076.34-.112.091-.028.183-.055.274-.081.117-.034.234-.068.352-.1.093-.026.186-.047.28-.071.118-.029.236-.058.355-.085.1-.021.2-.04.294-.059.116-.024.233-.047.35-.068s.213-.034.319-.05.222-.036.334-.05.238-.028.358-.04c.1-.012.2-.025.305-.034.141-.012.283-.019.424-.028.083-.005.165-.013.248-.015q.34-.016.682-.016h.015q.4,0,.789.021c.081,0,.161.013.242.018.185.013.37.025.554.044.09.01.178.023.268.034.173.021.346.041.517.068.088.014.176.032.264.047.17.03.341.06.509.1.085.018.169.039.253.058.17.039.339.078.507.122.081.021.162.046.243.068.168.048.336.1.5.149.078.024.155.052.233.079.166.055.331.112.495.173l.229.09c.161.064.322.128.48.2l.067.028,2.743-9.9a15.286,15.286,0,0,0-7.571-1.995"/><path class="b" d="M1364.055,254.441l-28.889-28.889-11.086,11.087,17.8,17.8-17.8,17.8,11.086,11.087,17.8-17.8Z"/><path class="b" d="M1329.87,254.441l-28.889-28.889-11.087,11.087,17.8,17.8-17.8,17.8,11.087,11.087,17.8-17.8Z"/></g></g></svg>